<mxfile>
    <diagram id="-r4NtDseUubgEyQxm2pd" name="第 1 页">
        <mxGraphModel dx="831" dy="1776" grid="1" gridSize="10" guides="1" tooltips="1" connect="1" arrows="1" fold="1" page="1" pageScale="1" pageWidth="827" pageHeight="1169" math="0" shadow="0">
            <root>
                <mxCell id="0"/>
                <mxCell id="1" parent="0"/>
                <mxCell id="2" value="reactive" style="swimlane;html=1;startSize=20;horizontal=0;childLayout=treeLayout;horizontalTree=1;resizable=0;containerType=tree;" vertex="1" parent="1">
                    <mxGeometry x="150" y="220" width="310" height="160" as="geometry"/>
                </mxCell>
                <mxCell id="3" value="proxy" style="whiteSpace=wrap;html=1;" vertex="1" parent="2">
                    <mxGeometry x="40" y="60" width="100" height="40" as="geometry"/>
                </mxCell>
                <mxCell id="4" value="get" style="whiteSpace=wrap;html=1;" vertex="1" parent="2">
                    <mxGeometry x="190" y="20" width="100" height="40" as="geometry"/>
                </mxCell>
                <mxCell id="5" value="" style="edgeStyle=elbowEdgeStyle;elbow=horizontal;html=1;rounded=0;" edge="1" parent="2" source="3" target="4">
                    <mxGeometry relative="1" as="geometry"/>
                </mxCell>
                <mxCell id="6" value="set" style="whiteSpace=wrap;html=1;" vertex="1" parent="2">
                    <mxGeometry x="190" y="100" width="100" height="40" as="geometry"/>
                </mxCell>
                <mxCell id="7" value="" style="edgeStyle=elbowEdgeStyle;elbow=horizontal;html=1;rounded=0;" edge="1" parent="2" source="3" target="6">
                    <mxGeometry relative="1" as="geometry"/>
                </mxCell>
                <mxCell id="13" style="edgeStyle=orthogonalEdgeStyle;rounded=0;orthogonalLoop=1;jettySize=auto;html=1;entryX=0.25;entryY=0;entryDx=0;entryDy=0;" edge="1" parent="1" source="9" target="4">
                    <mxGeometry relative="1" as="geometry">
                        <Array as="points">
                            <mxPoint x="365" y="110"/>
                            <mxPoint x="365" y="110"/>
                        </Array>
                    </mxGeometry>
                </mxCell>
                <mxCell id="16" value="访问" style="edgeLabel;html=1;align=center;verticalAlign=middle;resizable=0;points=[];" vertex="1" connectable="0" parent="13">
                    <mxGeometry x="-0.4353" y="1" relative="1" as="geometry">
                        <mxPoint as="offset"/>
                    </mxGeometry>
                </mxCell>
                <mxCell id="9" value="render函数副作用" style="strokeWidth=2;html=1;shape=mxgraph.flowchart.document2;whiteSpace=wrap;size=0.25;" vertex="1" parent="1">
                    <mxGeometry x="350" y="10" width="150" height="60" as="geometry"/>
                </mxCell>
                <mxCell id="15" style="edgeStyle=orthogonalEdgeStyle;rounded=0;orthogonalLoop=1;jettySize=auto;html=1;exitX=0.75;exitY=0;exitDx=0;exitDy=0;entryX=0.733;entryY=0.833;entryDx=0;entryDy=0;entryPerimeter=0;" edge="1" parent="1" source="4" target="9">
                    <mxGeometry relative="1" as="geometry"/>
                </mxCell>
                <mxCell id="17" value="收集依赖" style="edgeLabel;html=1;align=center;verticalAlign=middle;resizable=0;points=[];" vertex="1" connectable="0" parent="15">
                    <mxGeometry x="0.5377" y="2" relative="1" as="geometry">
                        <mxPoint as="offset"/>
                    </mxGeometry>
                </mxCell>
                <mxCell id="18" value="" style="html=1;shadow=0;dashed=0;align=center;verticalAlign=middle;shape=mxgraph.arrows2.arrow;dy=0.67;dx=20;notch=0;" vertex="1" parent="1">
                    <mxGeometry x="490" y="100" width="150" height="40" as="geometry"/>
                </mxCell>
                <mxCell id="22" value="" style="shape=image;verticalLabelPosition=bottom;labelBackgroundColor=#ffffff;verticalAlign=top;aspect=fixed;imageAspect=0;image=data:image/jpeg,iVBORw0KGgoAAAANSUhEUgAAA4MAAANWCAYAAABEZFlmAAAgAElEQVR4AezdC6xV930n+j9POwZfxwGua9cMpqmVltpieHTiENdYgXEwBpOmnuIOOBaKidp6jHMtVxFVihKaK+TWskZYTlqRjuUZ0zuW2lTECSYOzMVuQ1MN2MPYF2n6Sij2OBSI7fCwzQHO1W+5a2efzTmHvQ9nP9ZanyVt9t7r+f9//oe193ev/1przKxZs/qTgQABAgQIECBAgAABAgQqJTC2UrVVWQIECBAgQIAAAQIECBDIBIRBfwgECBAgQIAAAQIECBCooIAwWMFGV2UCBAgQIECAAAECBAgIg/4GCBAgQIAAAQIECBAgUEEBYbCCja7KBAgQIECAAAECBAgQEAb9DRAgQIAAAQIECBAgQKCCAsJgBRtdlQkQIECAAAECBAgQICAM+hsgQIAAAQIECBAgQIBABQWEwQo2uioTIECAAAECBAgQIEBAGPQ3QIAAAQIECBAgQIAAgQoKCIMVbHRVJkCAAAECBAgQIECAgDDob4AAAQIECBAgQIAAAQIVFBAGK9joqkyAAAECBAgQIECAAAFh0N8AAQIECBAgQIAAAQIEKiggDFaw0VWZAAECBAgQIECAAAECwqC/AQIECBAgQIAAAQIECFRQQBisYKOrMgECBAgQIECAAAECBIRBfwMECBAgQIAAAQIECBCooIAwWMFGV2UCBAgQIECAAAECBAgIg/4GCBAgQIAAAQIECBAgUEEBYbCCja7KBAgQIECAAAECBAgQEAb9DRAgQIAAAQIECBAgQKCCAsJgBRtdlQkQIECAAAECBAgQICAM+hsgQIAAAQIECBAgQIBABQXGV7DOqkyAAIGuCnz2s59N8TAQIECAAAECBIYTuP/++9PLL7883CwXNU0YvCg+CxMgQGBkAi+99FL6kz/5k5EtbCkCBAgQIECg9AJPPPFE2+soDLad2AYIECAwuEA7f+kbfIvGEiBAgAABAgR+KnDBMDhnzpyfzu0VAQIEKi4gwFX8D0D1CRAgQIBAiQQuGAY7cXiyRJ6qQoBAyQUWLFhQ8hqqHgECBAgQIFAVgQuGwYBo94mLVcFWTwIEiisQvST8OFbc9lNyAgQIECBA4HyBpsLg+YsZQ4AAAQKjLXDjxz6RZs6amw6//nqakM6kMakvjR+b0oQxY9I7777z/ubGjUuTrvhQunLaz6T/56t/ONpFsD4CBAgQIECgQgLCYIUaW1UJEOhtgb733ks/94uz09y589Il486msWPOpAljU5o4Zkx67713s8KfGzsunezrT6+9fqS3K6N0BAgQIECAQM8LCIM930QKSIBAVQTee/eddPadk+nmW29OH7hkTEqpP43t708Tx6Q0duzYdC6l9N65/vTKgX9I/2Pv/6wKi3oSIECAAAECbRIY26b1Wi0BAgQItCwQce90ttSEiILvnUlnT51OY/r60sSU0pj+/vTuu2eyR8urtgABAgQIECBAoEFgxEcGP7fxq+nUiXfST44eThOyLy+n0+SJE1N0c3rv9HspjRmT0sSJafrPz0p//d1vp7/5f3c0bNpbAgQIEBggcLYvpdMnUjp9Ott/TrpkfBoz/lw6e/Z0eu+9lE739aWzZ/2GN8DMGwJtFFiyZEl6+OGHsy08+uijaceOznyXWbt2bVq9enWaMCF+Fkrp2WefTZs2bcpe52W67LLLsvd79+5N69aty177hwABAq0KjDgMvnn4n9MNN/5S+plf/sU0cXz8mn0uXTp2bOo/ezadO3cu9aeUzowdmw787Wvp5PHjrZbL/AQIEKicwNjUnyamc+myS8el//vLX0oHf/CPKZ07m/r7z6aUxqWzZ8+m5Xf9Rpr2sz9XORsVJlBlgRtuuKFW/enTp9dCYm2kFwQIEBihwIjD4KkTb6crL780/cL1M9LE8f2p7/S5dOm4/jRh7Ng4uSX19fenE6fPpf/5yj+m0/GTtoEAAQIEhhUYGx0qxqU0rj+lyy+7LF1x+eX/Mn9/dnTwbBqX+s+dS6ffff9iMsOuzEQCBAovcOrUqSz4TZ48Oc2bNy/t27cv3XjjjcJg4VtWBQj0jsCIw2A6915K/WeyixuM70/pTN/ZNObc2TRm/PiU+uOLy7n0zjtxlDCOERoItEdg8+bNaf78+dnK40OzvhvP+vXr0/Lly7NpfX196emnn05btmxpT0GslcCoCPSnc+fOppPH30n33bc2OyIYRwP7z8WRwdPpVN+Y9JOTfekH/3R4VLZmJQQIDBRo7IL5V3/1VwNnSCkLZRs2bEjTpk3LpjV+9mzdujXNnDkzxbJz585NeXfO+q6esWA+X76BI0eOpI0bN2aBLx93+vTpFI8PfvCD2bpi/IwZM1J8psX811xzTT7reeWKCfXrzD8vX3nllfQzP/MztfLrZloj9IJAJQVGfvJJ38k05vQ76cy776bT776TLh17Jp1+73g6fvyt9Pabb6YTP34z9fcLgkX/q4oPqwhVvTLEeRR/9md/ln3oNZYpPnDjxuD5cPXVV+cvPRMohMCZM+fS8RPvpWPHT6S3f/KT9M8/fjO99qMfpddf/9/pnXf605v/fDS9e/JkdpXRQlRIIQkUSKAxCEbRb7755lqYi/dxdK4+CMa4+OyJ8wpj+fqhcdn4cTL/PG0MgrFchMuHHnqofhVZ6Dt06FB2JHDq1KnZPJMmTUpvvfVWOnbs2IB5Y9k8oOYT4v29996bv82e48hi/Xzxg2oERQMBAtUUGHEYjFOaL7tkXNr9376TPjZ/fnZ05mMfuyV9/OO/ku087/3MZ9LxY8fSubPxi7ahaALxgbdt27bs181eKXt8iK5Zs2bQ7jFvv/12Vsw8AEb549dTA4EiCYwdOyGNG3dZOn78vfSPP3ozvXb4rfTjt99Lx070pf/1w9fTsROn05sn303H39X1vkjtqqzFEIgfEyPYxZG+OEK3YMGCFEfN6ofbbrstC1JxxO2BBx6ozRPLLV26tH7W7KhcPs8PfvCDbNpNN9004MfMOFoY28kfq1atGrCOePOjH/0oGxfnDeZlPHHiRHqv4RScWDZfT33Zp0yZMmCdg9Vv1qxZ54XZAQt5Q4BAaQVG3E104viUxpw7l37h5z+S/q/Pf74GFFe9O3PubJp42QfTe++8k13woDbRi0IINP7yGb9mxgdYfDhGl5f6K5xFheq7mOS/dkY3lF/4hV/Iglt82D3//PO1X1Oje8s3vvGN9IlPfCLr+lLffTPvxpJD5d1q6rt8xi+ajz/+eHZ1tXy+kydPZh/iEQCj/FHO6FYTv57GEL+k5kPjVdpifH0d8jLoSpOLee6UwAcmT04fmDI1vfq//ja913c69fefS/GLXTyfO/deGjv2ktQ/ZmwaN/GSdNX0aztVLNshUAmB/MfEAwcO1K4aun379hRBKR/yefLPoXx8PDeGru9///u1Lp+7d+9O1157bfZZFMu++uqr2Y+t8fman86Qf97VrzNeR3k+/vGPpzhv8Lrrrssmx/J5WRrnzz/DGsfn7werX1y1NC5MYyBAoHoCIw6DZ86eTafeeS9Nv+batPzOO1Pf2bPpbF9fGjumP53tP5dOvHsmnXznTHaxg+qxlrPGv/zLv5zuuuuu847MzZ49O0XAqj8fL7qhxBDBLz5k6rvVxPtPf/rT2bR6qcE+wPIPyfr5Bnsd3WVivRH64oM2utPE++heE+dG5EN041m5cmVLdciXzbvSuIR3LuJ5tAXGX3JJ2r/3e+nY4X9uWHV2feaUUuyyx6QPTJqU/o8PXdkwj7cECBRFIG4TEY/6Hzrrf3itr0f0fIkfPOOzLR7xuXr06NHzwmD+Y2x+tHGwz9T69XpNgACBEBhxN9G4Ddbxk6fTsZ8cT//847fSG0d/nF7/0T+nI8feTm++eSK9/eO30ukzZ5w3WMC/s7haWRwFjG4wMcQHy4oVK9If/dEfpcWLF9e6oUT3l5gnQleEr/oh70KzcOHC9MYbb2RH6eID7Mknn8yWj3s1RbeafIiQFr++1s8T88b7OCoZRxajHDHk687vuRTjortMdJuJdUY3mvwy3Hn3mnw7sd1m66ArTa7muVMC/+OvX0jf+bP/kvb+5XcaHs+nvX/539Lev4zn76S/3PGN9O0//ZNOFct2CFRCID6rYqjvMhldP+s/q/J58s+h+m6ZjV0867uE5lcAjVAXy+ZDfI7FOuIzNz5z6i8Uk88T8x88eDB/m/V4eemll2rv40X8IBtHHmMdL7/8cjat8UhlvkB9/fJup/FZGz+eGggQqJ7AiI8MXnLJ5NTXNyYdPnY8/eTkT9LEf7E7c+adLACOnzAxnU7H05n+/jSmeq6lrnFjN9LBKhsfXBEqY8iP0sU5E/nRwwh38UEZH3wx5PdNimAZ5wXGIx/yo335+6Ge82430Y0mutPEh2J0h/nX//pfn7dIM3XQleY8NiMIECBQWoEIUYsWLcrCX/RmiUfjkH92xRG6OF2hfmjs5jnYPNF1NIY4Jz+mNw4R/CLoxakO9UMeQmNc/PAZn6/1F4aJIBeBLoLrUGXP1zfYPPWfd/l8ngkQqIbAiI8M/p8zZ6Zj77yT/ueBv03/+MPXs4sbxAUO/v7Q6+kfXvvf6W9/+Hr6wQ9fTx+66mfS5VfqzlSGP6c4erdz5870yCOPpK997WvZyfP1v3DW17H+g6t+fDtfR7eZ+DDMr5QWv8DmF5bJt9tKHfJlPBMgQIBA+QWi50jcnih+SMyHuD1E/fvGnjP5fI1BMMZ/97vfHXAUMJ8n1hG9bfKLyuTriO3EZ2v+Q2o+Pp4jqObliB8+G4co+65du2qjY97/9J/+U7bMVVddNeDiMHGOfP2268+Zr63ACwIEKiMw4iODL+74i/TuqXcGuaH8uX/Bez9nXnb55DQ+7j1oKJRAfBjFr4/1v1zm3WXiQyQ+eCJY1V+YZagK5iEturDk5xbmV2SL8BZD/qtmvK6/oEz9OuPoYT5//fj8dfyaumzZslqZ4+hkY1htpQ55V5qoa96VJj5gdaXJxT0TIECgXAKxv4/HcEMe5oabJ6a9++67Wegbar7GbqX180UvmrwnTT6+sVyN56/n5yHm88fz17/+9drb+qudDrft2gJeECBQCYERp7T/b9/7XR0qoVTxSuYntf/93/99JhE3092zZ0/TKvUhLe8CGqEuglV0C40hPuTigyou0pLPk28gwmf9B1fe9SY/hzCfrzHADnZ0Mh/XTB10pcllPRMgQIAAAQIECJRRYMTdRMuIoU4DBeq7osQRwOjyUt+1JF7ngSy/YMvANbz/LkJa/QVpIgjGrSWiG2f9EL9yRneV+qE+CEaozG8VEfMMdlntvMwRNPOT6OvXF7+cNlsHXWnq5bwmQIAAAQIECBAom8CYWbNmxTXLhxziCND9998/6BfrIRcygUCdQP19/fJzJvJxMdtQ3ULrVtHRl/nluJ1H0VH2nt9YdBV+4oknsiv/XWxhP/vZz2Zdj//Df/gPF7sqyxMgQIAAAQIlFehEDnNksKR/PL1UrfojetHlNP6woytodBGNI30x3UCAAAECBAgQIECAQGcFhMHOeldya9FNNK6QFl0364e4uEt0H43pBgIECBAgQIAAAQIEOisw4gvIdLaYtlZ0gWau0NYrdWy8QluvlEs5CBAgQIAAAQIECIymgDA4mprWRYAAgSYFLr300vRzP/dzTc5tNgIECBAgQIDA6AsIg6Nvao0ECBAYVmDu3LnpF3/xF7OLJw07o4kECBAgQIBAZQV+8pOfpOuvv76tF/IUBiv756XiBAh0SyAumjR+/Pj0hS98oVtFsF0CBAgQIECgxwW2b9+e/u7v/q6tpRQG28pr5QQIEBhc4MyZMwPumzn4XMYSIECAAAECBNoncMEw2N/fn2655RbntrSvDayZAIECCFx77bUFKKUiEiBAgAABAgSaF7hgGDx27FhavHhxevvtt5tfqzkJECBQMoErrrgivf766yWrleoQIECAAAECVRa4YBicOnVquv/++9t64mKVG0DdCRAohsCcOXPSE088UYzCKiUBAgQIECBAoAkBN51vAsksBAgQIECAAAECBAgQKJuAMFi2FlUfAgQIECBAgAABAgQINCEgDDaBZBYCBAgQIECAAAECBAiUTUAYLFuLqg8BAgQIECBAgAABAgSaEBAGm0AyCwECBAgQIECAAAECBMomIAyWrUXVhwABAgQIECBAgAABAk0ICINNIJmFAAECBAgQIECAAAECZRMQBsvWoupDgAABAgQIECBAgACBJgSEwSaQzEKAAAECBAgQIECAAIGyCQiDZWtR9SFAgAABAgQIECBAgEATAsJgE0hmIUCAAAECBAgQIECAQNkEhMGytaj6ECBAgAABAgQIECBAoAkBYbAJJLMQIECAAAECBAgQIECgbALCYNlaVH0IECBAgAABAgQIECDQhIAw2ASSWQgQIECAAAECBAgQIFA2AWGwbC2qPgQIECBAgAABAgQIEGhCQBhsAsksBAgQIECAAAECBAgQKJuAMFi2FlUfAgQIECBAgAABAgQINCEgDDaBZBYCBAgQIECAAAECBAiUTUAYLFuLqg8BAgQIECBAgAABAgSaEBAGm0AyCwECBAgQIECAAAECBMomIAyWrUXVhwABAgQIECBAgAABAk0ICINNIJmFAAECBAgQIECAAAECZRMQBsvWoupDgAABAgQIECBAgACBJgSEwSaQzEKAAAECBAgQIECAAIGyCQiDZWtR9SFAgAABAgQIECBAgEATAsJgE0hmIUCAAAECBAgQIECAQNkEhMGytaj6ECBAgAABAgQIECBAoAkBYbAJJLMQIECAAAECBAgQIECgbALCYNlaVH0IECBAgAABAgQIECDQhIAw2ASSWQgQIECAAAECBAgQIFA2AWGwbC2qPgQIECBAgAABAgQIEGhCQBhsAsksBAgQIECAAAECBAgQKJuAMFi2FlUfAgQIECBAgAABAgQINCEgDDaBZBYCBAgQIECAAAECBAiUTUAYLFuLqg8BAgQIECBAgAABAgSaEBAGm0AyCwECBAgQIECAAAECBMomIAyWrUXVhwABAgQIECBAgAABAk0ICINNIJmFAAECBAgQIECAAAECZRMQBsvWoupDgAABAgQIECBAgACBJgSEwSaQzEKAAAECBAgQIECAAIGyCQiDZWtR9SFAgAABAgQIECBAgEATAsJgE0hmIUCAAAECBAgQIECAQNkEhMGytaj6ECBAgAABAgQIECBAoAkBYbAJJLMQIECAAAECBAgQIECgbALCYNlaVH0IECBAgAABAgQIECDQhIAw2ASSWQgQIECAAAECBAgQIFA2AWGwbC2qPgQIECBAgAABAgQIEGhCQBhsAsksBAgQIECAAAECBAgQKJuAMFi2FlUfAgQIECBAgAABAgQINCEgDDaBZBYCBAgQIECAAAECBAiUTUAYLFuLqg8BAgQIECBAgAABAgSaEBAGm0AyCwECBAgQIECAAAECBMomIAyWrUXVhwABAgQIECBAgAABAk0ICINNIJmFAAECBAgQIECAAAECZRMQBsvWoupDgAABAgQIECBAgACBJgSEwSaQzEKAAAECBAgQIECAAIGyCQiDZWtR9SFAgAABAgQIECBAgEATAsJgE0hmIUCAAAECBAgQIECAQNkEhMGytaj6ECBAgAABAgQIECBAoAkBYbAJJLMQIECAAAECBAgQIECgbALCYNlaVH0IECBAgAABAgQIECDQhMD4JuYxCwECBAgQIECAAIGeFLjzzjvT+PG+0vZk45SgUN/4xjdKUIuhq+B/ztA2phAgQIAAAQIECBRA4O677059fX0FKKkiFklg7NixSRgsUospKwECBAgQIECAQCUFVq1aVcl6q3R7BD71qU+llStXtmflPbRW5wz2UGMoCgECBAgQIECAAAECBDolIAx2Stp2CBAgQIAAAQIECBAg0EMCwmAPNYaiECBAgAABAgQIECBAoFMCwmCnpG2HAAECBAgQIECAAAECPSQgDPZQYygKAQIECBAgQIAAAQIEOiUgDHZK2nYIECBAgAABAgQIECDQQwLCYA81hqIQIECAAAECBAgQIECgUwLCYKekbYcAAQIECBAgQIAAAQI9JCAM9lBjKAoBAgQIECBAgAABAgQ6JSAMdkradggQIECAAAECBAgQINBDAsJgDzWGohAgQIAAAQIECBAgQKBTAsJgp6RthwABAgQIECBAgAABAj0kIAz2UGMoCgECBAgQIECAAAECBDolML5TG7IdAgQIECBAgAABAgRGT2Dz5s1p/vz5qa+vLz399NPpxhtvHPB+y5YtF7Wx++67L7322mtpx44d561n69at6dixY2ndunXnTTOiOAKODBanrZSUAAECBAgQIECAQCawZMmSNGvWrPTss8+mhQsXpkOHDg14f7FBcP369enuu+8eVDuC4MyZMwedZmSxBITBYrWX0hIgQIAAAQIECBBI06dPzxSOHj2aPTe+bwdRBNCdO3ema6+9Np06daodm7DODgvoJtphcJsjQIBAEQRuv/329PGPf7wIRVXGAgp88YtfLGCpFZlA5wXi6Nzy5ctrG967d2/WLbN+/Jo1a9Jdd92VLr/88my+eH/rrbemVatWpXnz5qUNGzakadOmZdMiwD366KO1bp+N0/PuplOnTq1tN5afM2dO2rRpU1q6dGk6fPhweuyxx7L11grmRWEFhMHCNp2CEyBAoL0Cv/RLv5S+973vtXcj1l45gZtuuqlydVZhAiMRiPMBoxvoxo0bs/AWR+UefvjhFOPjPL04Irhy5cr0zDPPpOgSunbt2gHv8/kPHDiQVqxYkRUhlo11xHDkyJFaoHvggQfSvn37snXHOiMwxrBo0aIB4TE/PzBCpKEcAsJgOdpRLQgQINAWgfwLQVtWbqWVE7jjjjuSMFi5ZlfhEQhE2JoxY0batWtX7SheXMQljtBFQIugd6Eh5j158mR66qmnarPG6zjSF0f4XnnllTRp0qQsTEYQjCEPe/E6ljeUX0AYLH8bqyEBAgQIECBAgECBBKJbZwS16CJa3000qtDsuXpXX3111j308ccfP6/mBw8eTNEVNIa48IyhugLCYHXbXs0JECBAgAABAgR6UCAuBjNhwoTsSqFxrt5gQ3QLHW6YMmVK1hU0upnmR/7q54/zDg0EXE3U3wABAgQIECBAgACBHhKIo3VxMZc4ujfSIe4BGEcX84vHNK6n8SqkjdO9r4aAMFiNdlZLAgQIECBAgACBggjE+YFx4ZfZs2dnF4bJix3399u2bVt2ldB83FDP27dvzybdc889tVniaOILL7yQ4qjgSy+9lJ1TGFcezYeYHreOiGdhMVcp97NuouVuX7UjQIAAAQIECBAooEBczCWu/hm3iohHDHEF0Lzb59y5c4etVQTKGOLqoXv27KnNGzepz7uexrrigjL59PzWEnF10riIzbJly7Jt33jjjQMuLlNbmReFFxAGC9+EKkCAAAECBAgQIFBGgfqrezbWLwJbPPKh8X2Mj0CYh8J8vvrnOJcwv+1E/fh4PdJpjevxvrcFdBPt7fZROgIECBAgQIAAAQIECLRFQBhsC6uVEiBAgAABAgQIECBAoLcFhMHebh+lI0CAAAECBAgQIECAQFsEhMG2sFopAQIECBAgQIAAAQIEeltAGOzt9lE6AgQIECBAgAABAgQItEXA1UTbwmqlBAgQIECAAAECBNorELeemD9/fnaD+qeffjrFLSDq39dfbXQkJbnvvvvSa6+9Vrsiadx/cPXq1WnChAnZ6upvdTGS9Vum+wKODHa/DZSAAAECBAgQIECAQEsCS5YsSbNmzUpx38CFCxemQ4cODXh/sUEwbkx/991318qUB8G4VcWCBQuyx4kTJ7L7FMY9CQ3FFBAGi9luSk2AAAECBAgQIFBhgenTp2e1P3r0aPbc+H60aeKo41tvvZWef/752qp3796dJk2alObOnVsb50WxBHQTLVZ7KS0BAgQIECBAgEBFBOLo3PLly2u13bt3b4ob0dePX7NmTbrrrrvS5Zdfns0X72+99da0atWqFEfsNmzYkKZNm5ZNO3XqVHr00Udr3T4bp/f19aXobjp16tTadmP5OXPmZNutFcSL0gg4MliaplQRAgQIECBAgACBsgjE+YCLFi1KGzduzLpkxnN0C43xmzZtSk8++WSKcBfPn/zkJwe8jyAY3UgfeeSRdPDgwVq3zgMHDqSHH344m5YHwfB64IEHsnn279+fVq5cmV5++eWs+2msP7Yb2xtsiKOFMUQXVUMxBYTBYrabUhMgQIAAAQIECJRUIILajBkz0q5du2pH8eJcvXgfgTCC3oWGOJp38uTJ9NRTT9VmjdcxbunSpVnXzuji+a1vfSvt27cvmyeOOi5evLi2zdqCg7yIo5NxsZr6Mg4ym1E9LqCbaI83kOIRIECAAAECBAhUSyC6dUZQiy6i9d1EQyGO1jUzXH311Vn30Mcff/y82eNoYXQFjWEkR/XybqrRbXWoo4bnbdSInhQQBnuyWRSKAAECBAgQIECgqgJxMZi4fUNcKXSosBVX9xxumDJlShru1g8R6EYy1AfBOJJoKLaAbqLFbj+lJ0CAAAECBAgQKJlAHK2Li7nE0b2RDseOHcuOLuYXj2lcT+NVSBunD/Y+D4IRUgXBwYSKN04YLF6bKTEBAgQIECBAgECJBeL8wLjYy+zZs1P9EcCtW7embdu2ZVcJvVD1t2/fns1yzz331GaNdb3wwgvZ1Uhfeuml7PzBuPJoPsT0nTt3ZttsDIsxLc5VHO5oZb4ez8UR0E20OG2lpAQIECBAgAABAhURiCNvceXQuFVEPGKo7/Z5oXv7RaCMIa4eumfPnux1/FMf5uJKoXHriHx6fmuJuGF9XMRm2bJl2bbjqqHR7TS6rg52HmP9Omsb8qIQAsJgIZpJIQkQIECAAAECBKomMMDrUfIAACAASURBVFxXzAhs8ciHxvcxPgJhHgrz+eqf4yqiK1asqB9Vez3ctNpMXhReQDfRwjehChAgQIAAAQIECBAgQKB1AWGwdTNLECBAgAABAgQIECBAoPACwmDhm1AFCBAgQIAAAQIECBAg0LqAMNi6mSUIECBAgAABAgQIECBQeAFhsPBNqAIECBAgQIAAAQIECBBoXUAYbN3MEgQIECBAgAABAgQIECi8gDBY+CZUAQIECDQnMHny5OZmNBcBAgS6LGB/1eUGsPnKCAiDlWlqFSVAoOoCJ06cSE888US6/fbbq05xXv3Xrl2bdu7cmeK53UPcRHrr1q3t3oz1Eyi0gP1VoZtP4QskIAwWqLEUlQABAhcr8O1vfzv93u/9Xnr22WeFwovFHMHyEQTnz58/giUtQqB6AvZX1WtzNe68gDDYeXNbJECAQNcEtm/fno4cOZKmTJmSfvd3f1co7FBLzJs3L23bti3Nnj07nTp1qkNbtRkCxRaI/dWPf/xj+6tiN6PS97iAMNjjDaR4BAgQGG2BP/7jP059fX1p3LhxvmQNgRvdRV944YWs6+iSJUuyudavX5/27NlTe8RRvhjyeWN6PsQy0e00H3fbbbdlkx566KF0+PDhfDbPBAhcQOCrX/1qOnv2rP3VBZxMJjBSgfEjXdByBAgQGE2BOXPmjObqRn1d119/fbbO0Sjn1VdfneLiCKOxrpFU9I033kgnT55MH/zgB7PF60Phb//2b6f48lXlIcLd6tWr0/79+9O6desyigh+s2bNShs3bkw7duxIEfYefvjhFOOfeuqptGzZsnTDDTfU2PK2ffnll7NxmzZtqk2r+ovx48en6667ruoM6t+kwIEDB1KcP3jFFVdkS9hfNQlnNgJNCgiDTUKZjQCB9gvExU16fRjNMo7mukbilv/ani+bf8mKcwoPHjyYj67Uc4T+j370owOCYHTxnDFjRtq1a1cWBAMkAmEEvkWLFqVp06ZlXhEWIyTGtAiGcQQwXhsGCkyaNCn96Z/+6cCR3hEYRqC/vz+dO3cujR370w5t9furf/qnfxpmaZMIEBhOQBgcTsc0AgQ6LrBgwYKOb7OZDcYX/whvo1G+z372s2nu3Lnp/vvvb2bTbZnnW9/6VvrQhz5UW3d82Tpz5kx66623UnQjjfef+9znatOr8GLChAnp5ptvzqoaR0/zIcJeBJjly5dnj3x8POfn/73yyivZ+YD5EcGrrroqC4/183r9vsDx48fTr//6r+Mg0JRA/N/7z//5P6dLL730vPnj/OfYX8XR5jiabyBAoHUBYbB1M0sQIECg0AJLly6tdblqDIFxwYYYqnr7ib1792b1jyN+0cUzjuxNnz49RVCMK7AO193z1ltvHdBVNO8iWug/ljYUPo7wvPnmm21Ys1WWUeDTn/509v+vvm55CMz3V3feeWf9ZK8JEGhBQBhsAcusBAgQKINAnBcYXaziIjL5kcD8S1UZ6jfSOoRHHOE7dOhQdn7gPffck4XBeB/T4lzP4YZXX3013XTTTSm6leoiOpyUaQSaE4hzq//9v//32f4qlmgMgc2txVwECAwn8NPO18PNZRoBAgQIlEIgjgpG99D4UvXII4+kFStWJEFwYNPG0cA4P3DmzJnZ1UDjfVzEIm4LUX9T+rhxfNwuIsJfDHEkMLq0XXPNNSmCoYEAgYsTWLlyZfrABz6Q7a++8pWv2F+1yBlXM46rGudXRI79V7zP92P5LW/yKyO3uHqzl0TAkcGSNKRqECBAoBmBO+64I8WXKgFweK3oDhoXgYkvUUePHs2uKhpfmNasWZM9YukI1HF10X379mUri9AYRxPjfEFdRIf3NZXAhQTiqODChQvtry4ENcz02I/Vd23fsmVLikc+xL4rfhA0VFtAGKx2+6s9AQIVEogvV928aE0vUzd+SYqyrlq1akCR89tMDBg5yJsLdRFtXO8gqzCKAIGU0mc+8xkOBAi0WUA30TYDWz0BAgR6RSDu1WVon0AcRbzyyivT7t2727cRayZQEQH7q4o0tGp2XcCRwa43gQIQIECAQNEFogvp/PnzU1yNtL4bVtHrpfwECBAgUG4BYbDc7at2BAgQINABgWa7kHagKDZBgAABAgSaFtBNtGkqMxIgQIAAAQIECBAgQKA8AsJgedpSTQgQIECAAAECBAgQINC0gDDYNJUZCRAgQIAAAQIECBAgUB4BYbA8bakmBAgQIECAAAECBAgQaFpAGGyayowECBAgQIAAAQIECBAoj4AwWJ62VBMCBAgQIECAAAECBAg0LSAMNk1lRgIECBAgQIAAAQIECJRHQBgsT1uqCQECBAgQIECAAAECBJoWcNP5pqnMSIAAAQIECBAg0KsCn/70p3u1aMpFoGcFhMGebRoFI0CAAAECBAgQaEbgzJkz6a677mpmVvMQaFqgv7+/6XmLOqMwWNSWU24CBAgQIECAAIH0zW9+M3ugIECgdQHnDLZuZgkCBAgQIECAAAECBAgUXkAYLHwTqgABAgQIECBAgAABAgRaFxAGWzezBAECBAgQIECAAAECBAovIAwWvglVgAABAgQIECBAgAABAq0LCIOtm1mCAAECBAgQIECAAAEChRcQBgvfhCpAgAABAgQIECBAgACB1gWEwdbNLEGAAAECBAgQIECAAIHCCwiDhW9CFSBAgAABAgQIECBAgEDrAsJg62aWIECAAAECBAgQIECAQOEFhMHCN6EKECBAgAABAgQIECBAoHUBYbB1M0sQIECAAAECBAgQIECg8ALCYOGbUAUIECBAgAABAgQIECDQuoAw2LqZJQgQIECAAAECBAgQIFB4AWGw8E2oAgQIECBAgAABAgQIEGhdQBhs3cwSBAgQIECAAAECBAgQKLyAMFj4JlQBAgQIECBAgAABAgQItC4wvvVFLEGAAAECVRHYuHFjVaqqngQIECBAoHICwmDlmlyFCRAg0JzAnj17mpvRXARaEPibv/mbFuY2KwECBAi0U0AYbKeudRMgQKCgAs8991yKh4EAAQIECBAor4BzBsvbtmpGgAABAgQIECBAgACBIQWEwSFpTCBAgAABAgQIECBAgEB5BYTB8ratmhEgQIAAAQIECBAgQGBIAWFwSBoTCBAgQIAAAQIECBAgUF4BYbC8batmBAgQIECAAAECBAgQGFJAGBySxgQCBAgQIECAAAECBAiUV0AYLG/bqhkBAgQIECBAgAABAgSGFBAGh6QxgQABAgQIECBAgAABAuUVEAbL27ZqRoAAAQIECBAgQIAAgSEFhMEhaUwgQIAAAQIECBAgQIBAeQWEwfK2rZoRIECAAAECBAgQIEBgSAFhcEgaEwgQIECAAAECBAgQIFBeAWGwvG2rZgQIECBAgAABAgQIEBhSQBgcksYEAgQIECBAgAABAgQIlFdAGCxv26oZAQIECBAgQIAAAQIEhhQQBoekMYEAAQIECBAgQIAAAQLlFRAGy9u2akaAAAECBAgQIECAAIEhBYTBIWlMIECAAAECBAgQIECAQHkFhMHytq2aESBAgAABAgQIECBAYEgBYXBIGhMIECBAgAABAgQIECBQXgFhsLxtq2YECBAgQIAAAQIECBAYUkAYHJLGBAIECBAgQIAAAQIECJRXYHwRqrZo0aK0cOHCIhRVGQsosGHDhgKWWpEJECBAgAABAgQIXJxAIcJgVHHevHlp9+7dF1dbSxNoELjlllsaxnhLgAABAgQIECBAoBoChQmD0Rx/+Id/WI1WUcuOCCxevDgJgx2hthECBAgQIECAAIEeFHDOYA82iiIRIECAAAECBAgQIECg3QLCYLuFrZ8AAQIECBAgQIAAAQI9KCAM9mCjKBIBAgQIECBAgAABAgTaLSAMtlvY+gkQIECAAAECBAgQINCDAsJgDzaKIhEgQIAAAQIECBAgQKDdAsJgu4WtnwABAgQIECBAgAABAj0oIAz2YKMoEgECBAgQIECAAAECBNotIAy2W9j6CRAgQIAAAQIECBAg0IMCwmAPNooiESBAgAABAgQIECBAoN0CwmC7ha2fAAECBAgQIECAAAECPSggDPZgoygSAQIECBAgQIAAAQIE2i0gDLZb2PoJECBAgAABAgQIECDQgwLCYA82iiIRIECAAAECBAgQIECg3QLCYLuFrZ8AAQIECBAgQIAAAQI9KCAM9mCjKBIBAgQIECBAgAABAgTaLSAMtlvY+gkQIECAAAECBAgQINCDAsJgDzaKIhEgQIAAAQIECBAgQKDdAsJgu4WtnwABAgQIECBAgAABAj0oIAz2YKMoEgECBAgQIECAAAECBNotIAy2W9j6CRAgQIAAAQIECBAg0IMCwmAPNooiESBAgAABAgQIECBAoN0CwmC7ha2fAAECBAgQIECAAAECPSggDPZgoygSAQIECBAgQIAAAQIE2i0gDLZb2PoJECBAgAABAgQIECDQgwLCYA82iiIRIECAAAECBAgQIECg3QLCYLuFrZ8AAQIECBAgQIAAAQI9KCAM9mCjKBIBAgQIECBAgAABAgTaLSAMtlvY+gkQIECAAAECBAgQINCDAsJgDzaKIhEgQIAAAQIECBAgQKDdAsJgu4WtnwABAgQIECBAgAABAj0oIAx2sVEefPDBNG/evC6W4P1N33fffWnJkiWDlmPr1q1p8+bNg04zkgABAgQIECBAgACB4goIg11quwhYn/jEJ7q09Z9udv369enuu+/+6Yi6VxEEZ86cWTfGSwIECBAgQIAAAQIEyiIgDJalJUexHnGUcOfOnenaa69Np06dGsU1WxUBAgQIECBAgAABAr0iML5XClKlcsRRwfnz52dVfuyxx9LTTz+dtmzZkhqPxPX19dWmrV27Nv3qr/5qOnz4cPrIRz6Sjhw5kjZu3Jjmzp2bVq9enSZMmJCt75VXXkkf/vCH0zPPPJOtM0bG0b/ly5fXiPfu3ZvWrVs3YPyGDRvSnDlz0qZNm9LSpUuz7UTZYryBAAECBAgQIECAAIHyCQiDXWjTCGIRCGfMmJEFun379mXvJ0+enB544IEU7+Ncwghiy5YtSy+99FJWykmTJqWJEyemBQsWZO/jCN7KlSvT/v37s3AX7x9++OFaMIyZYjuzZs3KtrNjx47s3MCYJ8ZHOWJYtGhRevTRR1NMjyEf3wvnM2YFauM/4fnrv/7rbdyCVRMgQIAAAQIECBDoTQFhsEfaJQ9geXEiEB48eDALjPm4eH711Vdrb+MI3smTJ9NTTz2VjYswF0f38ovBRJiLwLlr165a0MvniQCYz1dbYQVfXHLJJenzn/98BWuuygQIECBAgAABAlUXEAZ77C+gsUtndAfNh+g2evTo0fxtmjJlSjpx4kR2JDEfGdNjvhimTZuW4mhidBGt7yYa05wL+L7Y8ePHz7N5f4p/Oy0QP2Q88cQTnd6s7REgQIAAAQIEKisgDPZI0+fnEUaQe/LJJ7Pz/fKupCMt4vTp07Muo88++2x2LuBg64kv4AYCBAgQIECAAAECBKon4GqiPdDmeXfOuLDLwoULaxd+iSN/ww3Hjh1LcZ5h/bl9U6dOrZ0zeOjQoewo4dVXXz3cakwjQIAAAQIECBAgQKCCAsJglxr9jTfeyLpwRlfOfKgPf3FU8EL3+Nu+fXu2jnvvvTdbRZwDGOcC5kOcH3jgwIE0e/bsFFcjzYe4aum2bduyEJl3O42jiAYCBAgQIECAAAECBKojIAx2qa1ffvnlbMtxxdDbbrstfe1rX0tXXXVV2rNnT/aIC79897vfTR/84Aez20cMVswIe3ELiQh7sVys6x/+4R9q5wzGMnFhmrja6Jo1a2rrjqOJcVuKuEhNXKk0LkIT0yOAGggQIECAAAECBAgQqIaAcwa71M4R5OJRPzS+r58Wr+NehI1DjKsfH0cA4yhfdBHNh8Yrlebj4zkC4YoVK+pH1V4PN602kxcECBAgQIAAAQIECBRSwJHBQjbb+4WOI3k7d+6s3SIizh2M+xK++eab5wXNAldT0QkQIECAAAECBAgQaIOAMNgG1E6tMo74HT58OOseGt1EH3/88exWE6tWrepUEWyHAAECBAgQIECAAIGCCugmWtCGy4st+OUSngkQIECAAAECBAgQaEXAkcFWtMxLgAABAgQIECBAgACBkggIgyVpSNUgQIAAAQIECBAgQIBAKwLCYCta5iVAgAABAgQIECBAgEBJBITBkjSkahAgQIAAAQIECBAgQKAVAWGwFS3zEiBAgAABAgQIECBAoCQCwmBJGlI1CBAgQIAAAQIECBAg0IqAMNiKlnkJECBAgAABAgQIECBQEgFhsCQNqRoECBAgQIAAAQIECBBoRUAYbEXLvAQIECBAgAABAgQIECiJgDBYkoZUDQIECBAgQIAAAQIECLQiIAy2omVeAgQIECBAgAABAgQIlERAGCxJQ6oGAQIECBAgQIAAAQIEWhEQBlvRMi8BAgQIECBAgAABAgRKIiAMlqQhVYMAAQIECBAgQIAAAQKtCAiDrWiZlwABAgQIECBAgAABAiUREAZL0pCqQYAAAQIECBAgQIAAgVYEhMFWtMxLgAABAgQIECBAgACBkggIgyVpSNUgQIAAAQIECBAgQIBAKwLCYCta5iVAgAABAgQIECBAgEBJBITBkjSkahAgQIAAAQIECBAgQKAVAWGwFS3zEiBAgAABAgQIECBAoCQCwmBJGlI1CBAgQIAAAQIECBAg0IqAMNiKlnkJECBAgAABAgQIECBQEgFhsCQNqRoECBAgQIAAAQIECBBoRUAYbEXLvAQIECBAgAABAgQIECiJgDBYkoZUDQIECBAgQIAAAQIECLQiIAy2omVeAgQIECBAgAABAgQIlERgfJHq8eUvf7lIxVVWAgQIECBAgAABAgQI9KxAYcLg7t27exZRwYor8OKLLxa38EpOgAABAgQIECBA4CIEChEGd+3aleJhIECAAAECBAgQIECAAIHREXDO4Og4WgsBAgQIECBAgAABAgQKJSAMFqq5FJYAAQIECBAgQIAAAQKjIyAMjo6jtRAgQIAAAQIECBAgQKBQAsJgoZpLYQkQIECAAAECBAgQIDA6AsLg6DhaCwECBAgQIECAAAECBAolIAwWqrkUlgABAgQIECBAgAABAqMjIAyOjqO1ECBAgAABAgQIECBAoFACwmChmkthCRAgQIAAAQIECBAgMDoCwuDoOFoLAQIECBAgQIAAAQIECiUgDBaquRSWAAECBAgQIECAAAECoyMgDI6Oo7UQIECAAAECBAgQIECgUALCYKGaS2EJECBAgAABAgQIECAwOgLC4Og4WgsBAgQIECBAgAABAgQKJSAMFqq5FJYAAQIECBAgQIAAAQKjIyAMjo6jtRAgQIAAAQIECBAgQKBQAsJgoZpLYQkQIECAAAECBAgQIDA6AsLg6DhaCwECBAgQIECAAAECBAolIAwWqrkUlgABAgQIECBAgAABAqMjIAyOjqO1ECBAgAABAgQIECBAoFACwmChmkthCRAgQIAAAQIECBAgMDoCwuDoOFoLAQIECBAgQIAAAQIECiUgDBaquRSWAAECBAgQIECAAAECoyMwfnRWYy0ECBAgUCaB22+/PX3sYx8rU5XUpYcENmzY0EOlUZQyCWzcuLFM1VGXHhJ48cUX086dO3uoRKNTFGFwdBythQABAqUTuPHGG9Nf//Vfl65eKtRdgX/zb/5Ndwtg66UWmD17dvre975X6jqqXOcFfuVXfiVFGCzjIAyWsVXViQABAqMk8Ad/8AejtCarIZDSHXfckYRBfwntFti/f3/6zne+0+7NWH+FBCIMlnVwzmBZW1a9CBAgQIAAAQIECBAgMIyAMDgMjkkECBAgQIAAAQIECBAoq4AwWNaWVS8CBAgQIECAAAECBAgMIyAMDoNjEgECBAgQIECAAAECBMoqIAyWtWXViwABAgQIECBAgAABAsMICIPD4JhEgAABAgQIECBAgACBsgoIg2VtWfUiQIAAAQIECBAgQIDAMALC4DA4JhEgQIAAAQIECBAgQKCsAsJgWVtWvQgQIECAAAECBAgQIDCMgDA4DI5JBAgQIECAAAECBAgQKKuAMFjWllUvAgQIECBAgAABAgQIDCMgDA6DYxIBAgQIECBAgAABAgTKKiAMlrVl1YsAAQIECBAgQIAAAQLDCAiDw+CYRIAAAQIECBAgQKDXBZYsWZJ27tyZ9uzZk7Zu3Zoa319s+efNm5cefPDBQVezdu3atH379mybg85gZE8LjO/p0ikcAQIECBAgQIAAAQLDCixdujSdPHkyfeELX0j79u1LmzdvHvB+2IUvMDGC4IYNG9LBgwfPmzOC4OrVq1NfX99504wohoAwWIx2UkoCBAgQIECAAAECgwpMmTIlnThxIguCMUPj+0EXusiRETjnz5+f3n777TRhwoSLXJvFuyUgDHZL3nYJECBAgAABAgQINCGQH52bNm1aNvepU6fSo48+mo4cOZIdtcvHv/jii+n06dPpsssuy+Z74YUX0tNPP522bNmS1q9fn5YvX17b2t69e9O6detq7xun/+AHP0iPPfZYbf2xjW3btqWNGzemeP3zP//z6cknn0xTp05NixYtqq3Hi2IJOGewWO2ltAQIECBAgAABAhUSiPP/Hnnkkayb5oIFC1I8Dhw4kB5++OEslK1YsSJFcIvHLbfckhYvXlx7v3DhwiwIxlG8CGwR5GL5eJ41a1bWnTQo8yD47LPP1qZfddVV6d57783mjdAZ4TG2Fd1Qd+zYkaJraoRMQ7EFhMFit5/SEyBAgAABAgQIlFhgzpw52fl/Tz31VK2W8TrOEYxAdqEhjirOmDEj7dq1KwtxMX+EuXgfgTDC5g033JAFyE2bNmWri+kRKuuPHF5oO6YXU0A30WK2m1ITIECAAAECBAhUQODqq6/OjgA+/vjj59V2sIu6NM4UXTonTZqUdRGt7yYa80V30+uuuy5Nnjx50AvENK7L+/IJCIPla1M1IkCAAAECBAgQKIlAXAwmumlG187ootnqMH369OwCL9EFND/yV7+OOHJ4++2314/yukICuolWqLFVlQABAgQIECBAoFgCx44dy47s5ReJabX0hw4dym79EEcYBxsiYMaVSCN0GqonIAxWr83VmAABAgQIECBAoCACcUP3GO65555aieP+fnGl0Ljwy4WGOP8vLjgze/bsFMvlQ9ycPq4OGkcGX3311XTttdeeNz3mERZzsXI+6yZaznZVKwIECBAgQIAAgRIIRJiLIa4eumfPnlqNhur2WZuh7kVcCCauKLpmzZrsEZPqu57m3U/rp8fVSVetWpWtJcJinG+4c+fO7JYWeZnqNuFlQQWEwYI2nGITIECAAAECBAhUQyDC13ABLA9tuUbj+xh/oSuDxvmEg51TGMuOdFpeHs+9K6CbaO+2jZIRIECAAAECBAgQIECgbQLCYNtorZgAAQIECBAgQIAAAQK9KyAM9m7bKBkBAgQIECBAgAABAgTaJiAMto3WigkQIECAAAECBAgQINC7AsJg77aNkhEgQGBUBSZPnjyq67MyAgQIdELAvqsTyrZRVQFhsKotr94ECFROIG4q/MQTT6Tbb7+9cnW/UIXj3ltxyfT6e3BdaJlWpi9ZsiRbf1wWPh6xrRhnIEDgwgK33HJL+uIXv5iGumn6hddQ/jnq9zFxb8DG9xcrEPcifPDBBwesJraT79PiuZl7Hg5YgTc9ISAM9kQzKAQBAgQ6I/Dtb387/d7v/V6K+1MJhZ0xjy9lcX+wuOnzggULske8jnECYWfawFaKLRA3Xf/oRz+a/vzP/zx96UtfEgoHac6lS5emkydPpgceeCC7N2Dj+0EWaXpUBMENGzakD3/4w7VlIgjGEdvYXuzXnnzyyWx/JhDWiArzQhgsTFMpKAECBC5eIL5U/fjHP05TpkxJv/u7vysUXjzpBdcwZ86cbJ6wz4f8dT4tH++ZAIHBBb72ta9lExYvXiwUDkIU+/To/ZHfPL7x/SCLjHhU/Ih11VVXpe9///u17W3ZsiW99tpr6YYbbhjxei3YHQFhsDvutkqAAIGuCXz1q19NZ8+eTePGjRMKh2iF6C76wgsvDOjOGb9413eJ2rx5c7Z0Pm/9L+J5F60YFzdrji+ww90weohiGE2AwL8I5D9kjR37/lfXRYsWVSoUxtG5bdu21fZBeVfzfPzMmTNTPF588cVsv5W/j/1Y3v19qH1Y/kfWOD2O/uVHBadNm5bmz5+fleHIkSPZPm2oG9Tn6/NcDIHxxSimUhIgUBWBXj1Scv3112dNMBrli/NeonvNaKxrJH8Xb7zxRjp16lS6/PLLs8XrQ+Fv//ZvpwiLVR7ii9Pq1avT/v3707p16zKKCH6zZs1KGzduzEJd3vUzxj/11FNp2bJlA34Rz9v25ZdfHpQypk+YMCEdPXp00OllHhl/b//qX/2rMldR3dok8Mwzz6TPfe5z2Q9Z8XcUQ4TC2267LT3//PPpj//4j9u05e6uNt/fRPfyFStWZIWJfU90NX/00UezcRHcYli1alX23Ph+uH1Y7OciCC5fvjzrLRIhL9/mvffem+33opvowYMHa/vEbCN1/8T8cbQwymgoloAwWKz2UloCpReIC5z08jCa5RvNdY3E7Ny5cyn/lT2Wz0NhnFMYH/pVHCL0x7lJ9UEwfhmfMWNG2rVrV+3oXhzli0AXX0TjF/PwirAYX4hiWnSVOnz4cG3+essImzFfbCO6VlVtiB9C/ut//a9Vq7b6tkkgD4URCOPx1ltvtWlL3Vtt7GvifMD44Skf4nUEtDg38EK9Di60D4v9UeyzfvCDH2Q9GWIbsc58vbH8cENM/63f+q3zyjjcMqb1joAw2DttoSQEKi0QR1DiJPReHeLDOMLbaJTxs5/9bJo7d266//77u1bdb33rW+lDH/pQbfv9/f3p42Xh2gAAIABJREFUzJkz2Rep+HU93scv8FUa4kjdzTffnFU5jp7mQ4S9SZMmZb+axy/n9UMcYY3hlVdeSbNnz64d7Y1fyCM8Ng75Ucc4tyY/6tg4T9nfHz9+PP3Gb/xG2aupfm0QiL+blStXDvgR6/Tp02nixInpueeeS1//+tfTH/3RH7Vhy91dZfQmif3Q448/fl5Bmvnh7kL7sOuuuy7rrdLMuhoLEEEwQmnsI+MoZX7OYuN83veugDDYu22jZAQIEGiLQPySfMUVV2TrbgyB+YVNqnql0b1792YuccQvfqCIX8anT5+edemMK7AOd47MrbfeOqCraGMX0fogmHflaksD9/hK44h0FbvH9niz9Hzx4ojypz71qVoQzENg/OgSIbD+B5yer0yLBYyLwcR5etFNfSRh60L7sAh0I9nnNwbB/Ehii9Uze5cFhMEuN4DNEyBAoNMCcV5gdK3q6+urHQnMQ2Cny9JL2wuPOMJ36NChrMvnPffck4XBeB/TLnSPs1dffTXddNNN2QUXGruI5kGwvvtpL9VdWQj0ukAcEfzABz6Q9WAYP358duS97CEwb5Njx45l5+PFEb6RDBfah0XAjCuRRuhsdsiDYMz/hS98YUQhtdltma+9Aq4m2l5faydAgEBPCcRRwegeGr8yP/LII9mFBwTBgU0Uv27H0Ya4Gl9cVCHex0URohtohLp8iAs0xNX94ktRDHEkMLpKXXPNNSmCYT7E+TjxRVYQzEU8E2hNII4K3n333dlC3/3ud9Ov/dqvpd///d8v9dHAeqF8Hx0/UOVD7IviSqGxj7rQ0Mw+LPZZ11577Xn7uNjPDRYWH3rooWyzIz1aeaEym945AUcGO2dtSwQIEOi6wB133JG+8pWvpPzLRdcL1KMFiO6gcUGFCHLRpTHO74ur8a1ZsyZ7RLEbu23FF674shbnC9Z3EY0Aftlll2WXZY9bU9QP0S21qucO1jt4TWA4gfgxJW6ZUJUjgY0WsW+JIa4eWr8PuVDX9fr1XGgflnc/rd/HxQVl8i7tERbjnOm4pUXstyI4xnnWjecxNu4X68vgdW8KCIO92S5KRYAAgVEXiF/Xu3nRmlGv0CiuMK7q2Xhlz/xLUL6ZZkNbYxfRZpfLt+OZAIGBAnFLiejGWOUhAmEeCgdzaNxfNb6PZS60L4ofwYY6L3q4aYOVx7jiCOgmWpy2UlICBAhclEDVv0xdFF4TC8dRxCuvvDLt3r27ibnNQoBAswL2Xc1KmY9A6wKODLZuZgkCBAgQIDBAILqQzp8/P+s+1XiEccCM3hAgQIAAgR4SEAZ7qDEUhQABAgSKKXCh7lfFrJVSEyBAgEDZBXQTLXsLqx8BAgQIECBAgAABAgQGERAGB0ExigABAgQIECBAgAABAmUXEAbL3sLqR4AAAQIECBAgQIAAgUEEhMFBUIwiQIAAAQIECBAgQIBA2QWEwbK3sPoRIECAAAECBAgQIEBgEAFhcBAUowgQIECAAAECBAgQIFB2AWGw7C2sfgQIECBAgAABAgQIEBhEQBgcBMUoAgQIECBAgAABAgQIlF1AGCx7C6sfAQIECBAgQIAAAQIEBhEQBgdBMYoAAQIECBAgQIAAAQJlFxAGy97C6keAAAECBAgQIECAAIFBBITBQVCMIkCAAAECBAgQIECAQNkFhMGyt7D6ESBAgAABAgQIECBAYBABYXAQFKMIECBAgAABAgQIlEFg3rx5adu2bWnz5s216mzdujXFIx/Wr1+fdu7cmZYsWZKP8lwRgfEVqadqEiBAgAABAgQIEKicwL59+9KKFSsG1HvVqlUD3m/atCnFw1A9AUcGq9fmakyAAAECBAgQIECAAIEkDPojIECAAAECBAgQIECAQAUFhMEKNroqEyBAgAABAgQIECBAQBj0N0CAAAECBAgQIECAAIEKCgiDFWx0VSZAgAABAgQIECBAgIAw6G+AAAECBAgQIECAAAECFRQQBivY6KpMgAABAgQIECBAgAABYdDfAAECBAgQIECAAAECBCooIAxWsNFVmQABAgQIECBAgAABAsKgvwECBAgQIECAAAECBAhUUEAYrGCjqzIBAgQIECBAgAABAgSEQX8DBAgQIECAAAECBAgQqKDA+ArWWZUJECBAoEmBL3/5y03OaTYCBAj0hsCCBQtSPAwECFxYQBi8sJE5CBAgUEmB73//+5Wst0q3V+C///f/3t4NWHulBfbs2VPp+qt8ewT+6q/+qj0r7oG1CoM90AiKQIAAgV4TeO6551I8DAQIECiSwCOPPFKk4iorga4LOGew602gAAQIECBAgAABAgQIEOi8gDDYeXNbJECAAAECBAgQIECAQNcFhMGuN4ECECBAgAABAgQIECBAoPMCwmDnzW2RAAECBAgQIECAAAECXRcQBrveBApAgAABAgQIECBAgACBzgsIg503t0UCBAgQIECAAAECBAh0XUAY7HoTKAABAgQIECBAgAABAgQ6LyAMdt7cFgkQIECAAAECBAgQINB1AWGw602gAAQIECBAgAABAgQIEOi8gDDYeXNbJECAAAECBAgQIECAQNcFhMGuN4ECECBAgAABAgQIECBAoPMCwmDnzW2RAAECBAgQIECAAAECXRcQBrveBApAgAABAgQIECBAgACBzgsIg503t0UCBAgQIECAAAECBAh0XUAY7HoTKAABAgQIECBAgAABAgQ6LyAMdt7cFgkQIECAAAECBAgQINB1AWGw602gAAQIECBAgAABAgQIEOi8gDDYeXNbJECAAAECBAgQIECAQNcFhMGuN4ECECBAgAABAgQIECBAoPMCwmDnzW2RAAECBAgQIECAAAECXRcQBrveBApAgAABAgQIECBAgACBzgsIg503t0UCBAgQIECAAAECBAh0XUAY7HoTKAABAgQIECBAgAABAgQ6LyAMdt7cFgkQIECAAAECBAgQINB1AWGw602gAAQIECBAgAABAgQIEOi8gDDYeXNbJECAAAECBAgQIECAQNcFhMGuN4ECECBAgAABAgQIECBAoPMCwmDnzW2RAAECBAgQIECAAAECXRcQBrveBApAgAABAgQIECBAgACBzgsIg503t0UCBAgQIECAAAECBAh0XUAY7HoTKAABAgQIECBAgAABAgQ6LyAMdt7cFgkQIECAAAECBAgQINB1AWGw602gAAQIECBAgAABAgQIEOi8gDDYeXNbJECAAAECBAgQIECAQNcFhMGuN4ECECBAgAABAgQIECBAoPMCwmDnzW2RAAECBAgQIECAAAECXRcQBrveBApAgAABAgQIECBAgACBzgsIg503t0UCBAgQIECAAAECBAh0XUAY7HoTKAABAgQIECBAgAABAgQ6LyAMdt7cFgkQIECAAAECBAgQINB1AWGw602gAAQIECBAgAABAgQIEOi8gDDYeXNbJECAAAECBAgQIECAQNcFhMGuN4ECECBAgAABAgQIECBAoPMCwmDnzW2RAAECBAgQIECAAAECXRcQBrveBApAgAABAgQIECBAgACBzgsIg503t0UCBAgQIECAAAECBAh0XUAY7HoTKAABAgQIECBAgAABAgQ6LyAMdt7cFgkQIECAAAECBAgQINB1AWGw602gAAQIECBAgAABAgQIEOi8gDDYeXNbJECAAAECBAgQIECAQNcFhMGuN4ECECBAgAABAgQIECBAoPMCwmDnzW2RAAECBAgQIECAAAECXRcQBrveBApAgAABAgQIECBAgACBzgsIg503t0UCBAgQIECAAAECBAh0XUAY7HoTKAABAgQIECBAgAABAgQ6LyAMdt7cFgkQIECAAAECBAgQINB1AWGw602gAAQIECBAgAABAgQIEOi8gDDYeXNbJECAAAECBAgQIECAQNcFxne9BApAgAABAj0ncPvtt6cJEyb0XLkUqBwC3/zmN8tREbXoCYE777yzJ8qhEOUUKPv+Shgs59+tWhEgQOCiBdasWZNOnz590euxAgL1AuPGjUtl/3JVX1+vOyOwevXq1N/f35mN2UplBM6dO1f6/ZUwWJk/ZxUlQIBA6wIrV65sfSFLEBhC4I477kjxI4OBQDsE7K/aoVrddX7qU59KVfibcs5gdf/G1ZwAAQIECBAgQIAAgQoLCIMVbnxVJ0CAAAECBAgQIECgugLCYHXbXs0JECBAgAABAgQIEKiwgDBY4cZXdQIECBAgQIAAAQIEqisgDFa37dWcAAECBAgQIECAAIEKCwiDFW58VSdAgAABAgQIECBAoLoCwmB1217NCRAgQIAAAQIECBCosIAwWOHGV3UCBAgQIECAAAECBKorIAxWt+3VnAABAgQIECBAgACBCgsIgxVufFUnQIAAAQIECBAgQKC6AsJgddtezQkQIECAAAECBAgQqLCAMFjhxld1AgQIECBAgAABAgSqKyAMVrft1ZwAAQIECBAgQIAAgQoLjK9w3VWdAAECBAgQIECAQGEFNm/enObPn5/6+vrS008/nW688cYB77ds2XJRdbvvvvvSa6+9lnbs2HHeerZu3ZqOHTuW1q1bd940I4oj4MhgcdpKSQkQIECAAAECBAhkAkuWLEmzZs1Kzz77bFq4cGE6dOjQgPcXGwTXr1+f7r777kG1IwjOnDlz0GlGFktAGCxWeyktAQIECBAgQIAAgTR9+vRM4ejRo9lz4/t2EEUA3blzZ7r22mvTqVOn2rEJ6+ywgG6iHQa3OQIECBAgQIAAAQLNCMTRueXLl9dm3bt3b9Yts378mjVr0l133ZUuv/zybL54f+utt6ZVq1alefPmpQ0bNqRp06Zl0yLAPfroo7Vun43T8+6mU6dOrW03lp8zZ07atGlTWrp0aTp8+HB67LHHsvXWCuZFYQUcGSxs0yk4AQIECBAgQIBAWQXifMBFixaljRs3pgULFmTP0S00xkcwe/LJJ7Ojc/H8yU9+csD7CIJxFO+RRx5JBw8ezJaPdRw4cCA9/PDD2bQ8CIbfAw88kM2zf//+tHLlyvTyyy9n3U8jPMb2Y3sxxPmBsW5DeQSEwfK0pZoQIECAAAECBAiUQCCC2owZM9KuXbtqR/HiIi7xPgJhBL0LDXE07+TJk+mpp56qzRqvY1wc4Zs7d26aNGlS+ta3vpX27duXzRNhb/HixbVt1hb0orQCuomWtmlVjAABAgQIECBAoIgC0a0zglp0Ea3vJhp1afZcvauvvjrrHvr444+fRxBHC6MraAxx4RlDdQWEweq2vZoTIECAAAECBAj0oEBcDGbChAlZV828i2ZjMdeuXds4asD7KVOmpCNHjmTdPPMjf/UzxHmHBgK6ifobIECAAAECBAgQINBDAnG0Li7mEkf3RjrEPQDj6GJ+8ZjG9TRehbRxuvfVEBAGq9HOakmAAAECBAgQIFAQgTg/MC72Mnv27FR/BDDu77dt27bsKqEXqsr27duzWe65557arLGuF154IcVRwZdeeik7fzCuPJoPMT1uHRHPwmKuUu5n3UTL3b5qR4AAAQIECBAgUECBuJhLXDk0bhURjxjqu33GBWCGGyJQxhBXD92zZ09t1rhJfd71NK4UGreOyKfnt5aIG9bHRWyWLVuWbfvGG2/MriRaW4kXpREQBkvTlCpCgAABAgQIECBQJoEIhEMNEdjikQ+N72N8BMI8FObz1T/HuYQrVqyoH1V7PdJptRV4UQgB3UQL0UwKSYAAAQIECBAgQIAAgdEVEAZH19PaCBAgQIAAAQIECBAgUAgBYbAQzaSQBAgQIECAAAECBAgQGF0BYXB0Pa2NAAECBAgQIECAAAEChRAQBgvRTApJgAABAgQIECBAgACB0RUQBkfX09oIECDQswKTJ09ODz744EXdxLhnK3eRBau/t9ZFruqCi8el4uNeYQYCBIYWsL8a2qZ+SuxP4rYQce/A2I81vq+fdySv77vvvrRkyZLaorGN2FZsMx7N3vOwtgIvek5AGOy5JlEgAgQItEfgxIkTKR5//ud/nr70pS8Jhe1hHnat8UVt/vz5w85jIgECKdtX5furL37xi/ZXg/xRREibNWtWivsGLly4MB06dGjA+/rbTgyy+AVHxY3p77777tp8EQRXr16d3apiwYIFKR7RRnGfwrgnoaGYAsJgMdtNqQkQIDAigWeeeSa999576d/+238rFI5IcGQLxRel+AV99uzZ6dSpUyNbiaUIVEwg31/dfvvt2f5KKBz4BzB9+vRsxNGjR7PnxvcD5774d3Hj+bfeeis9//zztZXt3r07TZo0Kc2dO7c2zotiCQiDxWovpSVAgMBFCcSvuE8//XQ6d+5ctp5FixYJhYOI5l2hdu7cWesiFb+S512j4jmO8sWQzxvT8yF+sY9l83G33XZbNumhhx5Khw8fzmfzTIDAMAKN+6vFixdXLhQOtd+J8WvWrEmXXXZZ9vyd73xnwPu8K3r+Q1S+76rfpwV94/S8u2msf/ny5dn648hfvF+3bl12g/q4Gb2hPALCYHnaUk0IECDQlED82n7mzJls3nHjxmXPQuFP6fKuUPv370/x5XPHjh1Z8AujjRs3Zl2j4jm6Z0UgfOmll7Jfy2+44YbaSubMmZO9fvnll7PnTZs2+RJV0/GCQPMC9furiRMnZgtWJRTG/mWo/U7sU5588smsp0E8f/KTnxzwftWqVdkPWY888kg6ePBgtt+Kbp0HDhxIDz/8cDYtgmAEvRgeeOCBbJ7Y761cuTLFviu6n0ZPhtjfxfYGG+JoYQzRRdVQTIHxxSy2UhMgUDaB+PL8xBNP9Hy14tfV0RpGc12tlqm/vz87Ojh27Pu/CeahMLqPxlGs+EJQxeH6669PH/3oR7P6x6/gMcQXphkzZqRdu3ZlwTDGRUCMv9n4ojZt2rTsy1aEwzgiGNMiGMYRwHhtGChwxRVXZF1mB471jsDQAmfPnh2wv8pDYQSgpUuXpldeeWXohQs65UL7nfqLugxVxdhHnTx5Mj311FO1WeJ1BMDcLbp4RuDOj/bl+71YIP9Rq7Zww4s4WhjnQEdotK9rwCnQW2GwQI2lqASqIHD//ff3ZDUjJHz+859Po1G+O+64I8X6/uN//I9dq+vv/M7vpOuuu27A9k+fPp3iS9Zzzz2X/u7v/i77dXjADCV/M2HChHTzzTdntXzjjTdqtY2wF1+YostUPOqH/Py/+DIa5wPmX56uuuqqLDzWz+v1+wLvvvtu+upXv4qDQNMCcUXLn/3Znx0wf/3+6oc//OF5/zcHzFzAN83sdy5Urauvvjr7serxxx8/b9Y4Wjh16tRs/EiO6uXdSPfu3TvkUcPzNmpETwoIgz3ZLApFoLoCebe6XhUYjfLFifbxIT0a6xqJUwSW+iCYf6mKI19f//rXUwShuGBDFYf4YhNDHPGL9olfu+OiDBEU49fvobpKxTK33nprdkQwd+tW++bb79XnuIBRnN9kINCMQOyv6oPgYPurO++8s5lVFWqeZvY70aV9uGHKlCnpyJEjWTfP/Mhf/fwR6EYy1AfB+iOJI1mXZbovIAx2vw2UgAABAh0VyI9uDvalqqMF6bGN9fX1Zd3N8suz33PPPVkYjPcxLQL8cMOrr76abrrppqxbqS6iw0mZRqB5garur5rd7wwneezYsRS9FOIo42BD41VIB5uncVweBC/041jjct73roALyPRu2ygZAQIERl0gfmWPc9tiiCOBv/Zrv5Z+//d/PzsaOOobK+gK42hg2MycOTO7gl68j4suRDfQ+l/i42p99TdcjiOB0Z30mmuuSREMDQQIXJxAlfdXze53hhPevn17Njl+2MqH+qsfx8Wv4pzC6NWQDzE9rjgaz41hMcbFuYqCYK5VjmdHBsvRjmpBgACBpgTi3Js4JzDvDtrUQhWcKbqDxkVg4otPfCGKrlBxZb+4lHs8YmjsfhVf3uJLV/wSr4toBf9oVHnUBaq+v7rQfudC9/aLfVIMcfXQ+guW1Ye5uFJoXFAmnx69IOL2Q3HD+riIzbJly7J9Xlw1NLqdRpf5wc6frl/nqP8hWGFbBYTBtvJaOQECBHpHYPLkyekrX/mKo4CDNEl88YlH/RCXZq8fmj035kJdRBvXW78NrwkQeF/A/up9h+H2O437rcb3sYYIhHkoHOxvK84lXLFixWCTsiuMDjVt0AWMLKSAMFjIZlNoAgQItC4QN3COh6E9AnEU8corr0x/8Rd/0Z4NWCuBCgnYX1WosVW1qwLCYFf5bZwAAQIEyiAQXUjjfltxNdLGI4xlqJ86ECBAgEA5BYTBcrarWhEgQIBABwWG68rVwWLYFAECBAgQaEnA1URb4jIzAQIECBAgQIAAAQIEyiEgDJajHdWCAAECBAgQIECAAAECLQkIgy1xmZkAAQIECBAgQIAAAQLlEBAGy9GOakGAAAECBAgQIECAAIGWBITBlrjMTIAAAQIECBAgQIAAgXIICIPlaEe1IECAAAECBAgQIECAQEsCwmBLXGYmQIAAAQIECBAgQIBAOQSEwXK0o1oQIECAAAECBAgQIECgJQFhsCUuMxMgQIAAAQIECBAgQKAcAsJgOdpRLQgQIECAAAECBAgQINCSgDDYEpeZCRAgQIAAAQIECBAgUA4BYbAc7agWBAgQIECAAAECBAgQaElAGGyJy8wECBAgQIAAAQIECBAoh4AwWI52VAsCBAgQIECAAAECNYH169ennTt3piVLlmTj1q5dm72P5xjmzZuXtm3bljZv3lxbxovqCYyvXpXVmAABAgQIECBAgEC5BTZt2pTikQ9btmxJ8ciHffv2pRUrVuRvPVdUwJHBija8ahMgQIAAAQIECBAgUG0BYbDa7a/2BAgQIECAAAECBAhUVEAYrGjDqzYBAgQIECBAgAABAtUWEAar3f5qT4AAAQIECBAgQIBARQWEwYo2vGoTIECAAAECBAgQIFBtAWGw2u2v9gQIECBAgAABAgQIVFRAGKxow6s2AQIECBAgQIAAAQLVFhAGq93+ak+AAAECBAgQIECAQEUFhMGKNrxqEyBAgAABAgQIECBQbQFhsNrtr/YECBAgQIAAAQIECFRUQBisaMOrNgECBAgQIECAAAEC1RYQBqvd/mpPgAABAgQIECBAgEBFBcZXtN6qTYAAAQJNCCxfvryJucxCgACB7gvYX3W/DZSgeALCYPHaTIkJECDQEYEzZ86kz3zmMx3Zlo1UR6C/v786lVXTjgmMGTPG/qpj2tXZUHwOln0QBsvewupHgACBEQg899xzKR4GAgQI9LrAN7/5zRQPAwECrQs4Z7B1M0sQIECAAAECBAgQIECg8ALCYOGbUAUIECBAgAABAgQIECDQuoAw2LqZJQgQIECAAAECBAgQIFB4AWGw8E2oAgQIECBAgAABAgQIEGhdQBhs3cwSBAgQIECAAAECBAgQKLyAMFj4JlQBAgQIECBAgAABAgQItC4gDLZuZgkCBAgQIECAAAECBAgUXkAYLHwTqgABAgQIECBAgAABAgRaFxAGWzezBAECBAgQIECAAAECBAovIAwWvglVgAABAgQIECBAgAABAq0LCIOtm1mCAAECBAgQIECAAAEChRcQBgvfhCpAgAABAgQIECBAgACB1gWEwdbNLEGAAAECBAgQIECAAIHCCwiDhW9CFSBAgAABAgQIECBAgEDrAsJg62aWIECAAAECBAgQIECAQOEFhMHCN6EKECBAgAABAgQIECBAoHUBYbB1M0sQIECAAAECBAgQIECg8ALCYOGbUAUIECBAgAABAgQIECDQuoAw2LqZJQgQIECAAAECBAgQIFB4AWGw8E2oAgQIECBAgAABAgQIEGhdQBhs3cwSBAgQIECAAAECBAgQKLyAMFj4JlQBAgQIECBAgAABAgQItC4wvvVFOr/EokWL0mWXXdb5DdtiJQSeffbZStRTJQkQIECAAAECBAjUCxQiDEaBf/M3fzOdOnWqvuxeE7hogUsvvTQJgxfNaAUECBAgQIAAAQIFFChMGAzbf/fv/l0BiRW5VwUWL16cHnzwwV4tnnIRIECAAAECBAgQaKuAcwbbymvlBAgQIECAAAECBAgQ6E0BYbA320WpCBAgQIAAAQIECBAg0FYBYbCtvFZOgAABAgQIECBAgACB3hQQBnuzXZSKAAECBAgQIECAAAECbRUQBtvKa+UECBAgQIAAAQIECBDoTQFhsDfbRakIECBAgAABAgQIECDQVgFhsK28Vk6AAAECBAgQIECAAIHeFBAGe7NdlIoAAQIECBAgQIAAAQJtFRAG28pr5QQIECBAgAABAgQIEOhNAWGwN9tFqQgQIECAAAECBAgQINBWAWGwrbxWToAAAQIECBAgQIAAgd4UEAZ7s12UigABAgQIECBAgAABAm0VEAbbymvlBAgQIECAAAECBAgQ6E0BYbA320WpCBAgQIAAAQIECBAg0FYBYbCtvFZOgAABAgQIECBAgACB3hQQBnuzXZSKAAECBAgQIECAAAECbRUQBtvKa+UECBAgQIAAAQIECBDoTQFhsDfbRakIECBAgAABAgQIECDQVgFhsK28Vk6AAAECBAgQIECAAIHeFBAGe7NdlIoAAQIECBAgQIAAAQJtFRAG28pr5QQIECBAgAABAgQIEOhNAWGwN9tFqQgQIECAAAECBAgQINBWAWGwrbxWToAAAQIECBAgQIAAgd4UEAZ7s12UigABAgQIECBAgAABAm0VEAbbymvlBAgQIECAAAECBAgQ6E0BYbA320WpCBAgQIAAAQIECBAg0FYBYbCtvFZOgAABAgQIECBAgACB3hQQBnuzXZSKAAECBAgQIECAAAECbRUQBtvKa+UECBAgQIAAAQIECBDoTQFhsDfbRakIECBAgAABAgQIECDQVgFhsK28w6/8wQcfTPPmzRt+pg5Mve+++9KSJUtqW1q7dm164YUX0p49e7LHtm3beqKctQJ6QYAAAQIECBC91cxkAAAgAElEQVQgQIDARQsIgxdNOLIVbN68OX3iE58Y2cKjuNT69evT3XffXVtjBMHVq1enHTt2pAULFmSPEydOpA0bNgiENSUvCBAgQIAAAQIECBRfQBgsfhuOag1uvPHG9NZbb6Xnn3++tt7du3enSZMmpblz59bGeUGAAAECBAgQIECAQLEFxhe7+MUsfRwVnD9/flb4xx57LD399NNpy5YtaevWrWnmzJm1SvX19dWmxRG7X/3VX02HDx9OH/nIR9KRI0fSxo0bs4AWR/ImTJiQLffKK6+kD3/4w+mZZ57J1hkj4+jf8uXLa+vdu3dvWrdu3YDxceRvzpw52fjajF4QIECAAAECBAgQIFBaAUcGu9C0EcQikEWge+ihh7LQFgFx8uTJ6YEHHsi6ZsZzHKFbtmxZrXtmHJ2bOHFiNn3FihVp2rRpaeXKlWn//v3ZuAiHEQTzYBhVi/UuWrQoC47R7TPmmTVrVjZ+06ZN6dlnn02nTp3Kxsf7wYY4WhjDoUOHBpv8/7d3b6FyVfcfwNc/jRa8IDVesBiiWF+CENRAi4gRFJoLElDBhyjhgLaUUpWaIoL1QQsiSNGEtpQoIaCIhUJDaFR6AtWH4IMxSIMvfZBgQURDWzDWJI3589vtns6Zc5kzmZm99uWz4XDOzOzZ+7c+a7Iz31lr73EfAQIECBAgQIAAAQINFDAyWJNOi4DYvxw+fDgdO3YsrVmzpv/udPTo0d7tzZs3pxMnTqS9e/cW98V5fjG6V14MJi5OE88/ePBgcQ5grFSuEwGxXK+3wQX+iFHFGMWM0BjPbdty8cUXFxfJaVu7tIcAAQIECBAgQIDAMAFhcJhQxY8PTumM0cNyiWmjn3/+eXkzrVq1KsXFXSI4lks8HuvFEiOHMZoYU0T7p4nGYzEaOGwpa4lRzMVGDYdto+6Pnzx5Mv3617+ue5mdqe/RRx/tTFs1lAABAgQIECCQW0AYzN0D/91/eR5hBLk9e/b0po4OjgyOUu7q1auLKaMxqrdYmIuRxIWW/iA4OGq50PpNve/UqVPpd7/7XVPLb1Xdi70WW9VIjSFAgAABAgQI1EjAOYM16IxyOmeMwG3YsKF34ZcY+VtqOX78eHGeYf93FV522WW9cwbjHL8Il1ddddVSm5n3WBkEI0S2OQjOa7g7CBAgQIAAAQIECHRIQBjM1NmffPJJMYUzpnKWS3/4i5HC/iuLluv0/z5w4ECxje3btxd3xzmAcS5gucQ5fh9++GFat25diquRlktctbT8Ivly2mmMIsYS68V2lhpNLLfjNwECBAgQIECAAAECzRUwTTRT3x05cqQIbvGVDhG8fvOb36QdO3b0LmYS5wr+6U9/Srfffvui3+8XYS9CXHy1xKFDh4qWlF8tUTYrRvYiWM7MzBQ/cX/5tRTluYZxxdJ4PK4aGoE0rka60HmGAmKp6jcBAgQIECBAgACB5gsIg5n6MILc4NU5B28PlhbfRTi4xH3998fIXgTE/q+BWGqqZwTC+JoKCwECBAgQIECAAAEC3RIwTbTB/R0jfrOzs72viIhzB2OU7+9///u8oNngZiqdAAECBAgQIECAAIEpCAiDU0CtapMx4vfpp5+mmGoa00R37dpVfNXEtm3bqirBfggQIECAAAECBAgQaKiAaaIN7biybMGvlPCbAAECBAgQIECAAIFRBIwMjqJlXQIECBAgQIAAAQIECLREQBhsSUdqBgECBAgQIECAAAECBEYREAZH0bIuAQIECBAgQIAAAQIEWiIgDLakIzWDAAECBAgQIECAAAECowgIg6NoWZcAAQIECBAgQIAAAQItERAGW9KRmkGAAAECBAgQIECAAIFRBITBUbSsS4AAAQIECBAgQIAAgZYICIMt6UjNIECAAAECBAgQIECAwCgCwuAoWtYlQIAAAQIECBAgQIBASwSEwZZ0pGYQIECAAAECBAgQIEBgFAFhcBQt6xIgQIAAAQIECBAgQKAlAsJgSzpSMwgQIECAAAECBAgQIDCKgDA4ipZ1CRAgQIAAAQIECBAg0BIBYbAlHakZBAgQIECAAAECBAgQGEVAGBxFy7oECBAgQIAAAQIECBBoiYAw2JKO1AwCBAgQIECAAAECBAiMIiAMjqJlXQIECBAgQIAAAQIECLREQBhsSUdqBgECBAgQIECAAAECBEYREAZH0bIuAQIECBAgQIAAAQIEWiIgDLakIzWDAAECBAgQIECAAAECowgIg6NoWZcAAQIECBAgQIAAAQItERAGW9KRmkGAAAECBAgQIECAAIFRBITBUbSsS4AAAQIECBAgQIAAgZYICIMt6UjNIECAAAECBAgQIECAwCgCwuAoWtYlQIAAAQIECBAgQIBASwSEwZZ0pGYQIECAAAECBAgQIEBgFAFhcBQt6xIgQIAAAQIECBAgQKAlAiub1I4tW7Y0qVy1EiBAgAABAgQIECBAoLYCjQmD//rXv9LMzExtIRXWTIGTJ082s3BVEyBAgAABAgQIEBhToBFh8ODBgyl+LAQIECBAgAABAgQIECAwGQHnDE7G0VYIECBAgAABAgQIECDQKAFhsFHdpVgCBAgQIECAAAECBAhMRkAYnIyjrRAgQIAAAQIECBAgQKBRAsJgo7pLsQQIECBAgAABAgQIEJiMgDA4GUdbIUCAAAECBAgQIECAQKMEhMFGdZdiCRAgQIAAAQIECBAgMBkBYXAyjrZCgAABAgQIECBAgACBRgkIg43qLsUSIECAAAECBAgQIEBgMgLC4GQcbYUAAQIECBAgQIAAAQKNEhAGG9VdiiVAgAABAgQIECBAgMBkBITByTjaCgECBAgQIECAAAECBBolIAw2qrsUS4AAAQIECBAgQIAAgckICIOTcbQVAgQIECBAgAABAgQINEpAGGxUdymWAAECBAgQIECAAAECkxEQBifjaCsECBAgQIAAAQIECBBolIAw2KjuUiwBAgQIECBAgAABAgQmIyAMTsbRVggQIECAAAECBAgQINAoAWGwUd2lWAIECBAgQIAAAQIECExGQBicjKOtECBAgAABAgQIECBAoFECwmCjukuxBAgQIECAAAECBAgQmIyAMDgZR1shQIAAAQIECBAgQIBAowSEwUZ1l2IJECBAgAABAgQIECAwGYGVk9mMrRAgQIBAmwQ2bdqUVqzweWGb+rRObfnjH/9Yp3LU0iKBLVu2tKg1mlIngZMnT6bZ2dk6lTSRWoTBiTDaCAECBNon8OCDD6YzZ860r2FalF1AGMzeBa0t4Ac/+EE6ffp0a9unYXkEvvnNb6YXX3wxz86nvFdhcMrANk+AAIEmC9x7771NLl/tNROIUZuZmZmaVaWctgns3r07vfXWW21rlvZkFNi/f3/GvU931+YATdfX1gkQIECAAAECBAgQIFBLAWGwlt2iKAIECBAgQIAAAQIECExXQBicrq+tEyBAgAABAgQIECBAoJYCwmAtu0VRBAgQIECAAAECBAgQmK6AMDhdX1snQIAAAQIECBAgQIBALQWEwVp2i6IIECBAgAABAgQIECAwXQFhcLq+tk6AAAECBAgQIECAAIFaCgiDtewWRREgQIAAAQIECBAgQGC6AsLgdH1tnQABAgQIECBAgAABArUUEAZr2S2KIkCAAAECBAgQIECAwHQFhMHp+to6AQIECBAgQIAAAQIEaikgDNayWxRFgAABAgQIECBAgACB6QoIg9P1tXUCBAgQIECAAAECBAjUUkAYrGW3KIoAAQIECBAgQIDA8gQ2btyYZmdn06FDh9Krr76aBm8vbyuLr3XzzTenRx55ZMEVHnrooXTgwIFinwuu4M5aC6ysdXWKI0CAAAECBAgQIEBgSYHNmzenEydOpMcffzwdPnw47dy5c87tJZ885MEIgk899VQ6duzYvDUjCN5///3p9OnT8x5zRzMEhMFm9JMqCRAgQIAAAQIECCwosGrVqvTFF18UQTBWGLy94JPGvDMC5/r169M///nPdN555425NU/PJSAM5pK3XwIECBAgQIAAAQLLEChH5y6//PJi7S+//DI9//zz6bPPPitG7cr733nnnXTq1Kl0wQUXFOu9/fbb6ZVXXkm7d+9OTzzxRLrrrrt6e3vvvffSww8/3Ls9+PhHH32UfvnLX/a2H/vYt29fevrpp1P8/Z3vfCft2bMnXXbZZemOO+7obccfzRJwzmCz+ku1BAgQIECAAAECHRKI8/+ee+65YprmLbfckuLnww8/TDt27ChC2datW1MEt/i57bbb0p133tm7vWHDhiIIxiheBLYIcvH8+L127dpiOmlQlkFw//79vcevvPLKtH379mLdCJ0RHmNfMQ31zTffTDE1NUKmpdkCwmCz+0/1BAgQIECAAAECLRa48cYbi/P/9u7d22tl/B3nCEYgG7bEqOKaNWvSwYMHixAX60eYi9sRCCNs3nDDDUWAfPbZZ4vNxeMRKvtHDoftx+PNFDBNtJn9pmoCBAgQIECAAIEOCFx11VXFCOCuXbvmtXahi7oMrhRTOi+88MJiimj/NNFYL6abXnPNNemiiy5a8AIxg9tyu30CwmD7+lSLCBAgQIAAAQIEWiIQF4OJaZoxtTOmaI66rF69urjAS0wBLUf++rcRI4ebNm3qv8vfHRIwTbRDna2pBAgQIECAAAECzRI4fvx4MbJXXiRm1Oo//vjj4qsfYoRxoSUCZlyJNEKnpXsCwmD3+lyLCRAgQIAAAQIEGiIQX+geywMPPNCrOL7fL64UGhd+GbbE+X9xwZl169aleF65xJfTx9VBY2Tw6NGj6eqrr573eKwjLJZi7fxtmmg7+1WrCBAgQIAAAQIEWiAQYS6WuHrooUOHei1abNpnb4W+P+JCMHFF0ZmZmeInHuqfelpOP+1/PK5Oum3btmIrERbjfMPZ2dniKy3Kmvp24c+GCgiDDe04ZRMgQIAAAQIECHRDIMLXUgGsDG2lxuDtuH/YlUHjfMKFzimM557rY2U9ftdXwDTR+vaNyggQIECAAAECBAgQIDA1AWFwarQ2TIAAAQIECBAgQIAAgfoKCIP17RuVESBAgAABAgQIECBAYGoCwuDUaG2YAAECBAgQIECAAAEC9RUQBuvbNyojQIAAAQIECBAgQIDA1ASEwanR2jABAgTqJXDRRRelRx55JC32xcP1qrbaauK7t+KS6f3fwTXJCjZu3FhsPy4LHz+xr7jPQoDAcIHNmzenTZs2DV+xw2v0H2PiuwEHb49LE99FGP9/9C+xn/KYFr+X852H/c/3dz0EhMF69IMqCBAgMHWBL774IsXP73//+/Tkk08KhVMX/88O4k1ZfD9YfOnzLbfcUvzE33GfQFhRJ9hNowXeeeed9Nhjj6U//OEPQuEiPRmB+cSJE+knP/lJ8d2Ag7cXedqy7o4g+NRTT6Xrrruut34EwfiAMfYXx7U9e/YUxzOBsEfUmD+EwcZ0lUIJECAwvsDrr7+eTp48WbyhEgrH91zOFm688cZitQMHDvRWL/8uH+s94A8CBOYJxIdYr732WrriiiuK0SehcB5RWrVqVfFhX/nl8YO35z/j3O+JD7GuvPLK9O6776Zyf7t3705/+9vf0g033HDuG/bMLALCYBZ2OyVAgEAegXhT9corr6Svv/66KODOO+80UrhAV8R00bfffnvOdM74xLt/StTOnTuLZ5br9n8iXk7Rivviy5rDeakvjF6gBHcRINAnUH6QtXLlyk6Gwhid27dvX+8YVE41L++/9tprU/zEKGo8Vt6O41g5/X2xY1jJPPh4jP6Vo4KXX355Wr9+fVHDZ599VhzTFvuC+nJ7fjdDQBhsRj+pkgABAhMTiDdV//73v4vtnX/++cVvofB/vPHG6f77708ffPBBL8RF8LvjjjvS008/XUyJit9r165Ncf/777+f/vGPf8z5RLwc8Tty5Mj/Ntz3Vzx+3nnnpc8//7zvXn8SILCYQPlB1pkzZ4pVuhQK48Ol5557Lh07dmzeVPMIaVu3bk0fffRR8XPbbbcVx63y9oYNG1KM2i11DAvQCIJ33XVX2r9/f+8YF6N/27dvL457EQDfe++9Yl/laGB/X5WjhcePH++/298NEFjZgBqVSIBAhwRi5KXOyyTrm+S2RjU7e/ZsMTq4YsV/PhMsQ+H3v//9FOeaRBDq4nL99den7373u0X7H3744YIgPhlfs2ZNOnjwYG90L0b5ItBFQIw3Y/EmLcJhvCGKx2Kq1Kefftpbv98ywmasF8bxJq1ryyWXXFKMRnet3do7vkAcr77xjW/M2VCEwvg3+POf/zw9+OCDKW63bYljTZwPuHfv3l7T4u84jy+O18NmHQw7hsXxKI5ZESDL0b7YZrndeP5SSzz+ox/9aF6NSz3HY/URaN+/mPrYqoQAgREFfvzjH4/4jOpWj5Dw6KOPpknUuGXLlhTbe+GFF6prwMCefvazn6Vrrrlmzr2nTp1KEQrfeOON9Ne//jXdd999cx5v+40Yqbv11luLZn7yySe95sYbzQsvvLD41Dw+Oe9fvvzyy+LmX/7yl7Ru3boiIMYd8Yl6hMfBpRx1jHNryrA5uE7bb8c5qy+//HLbm6l9UxCID2UeeOCBOVuOD7ZipkOMzsfr6oc//OGcx9twI64AHcehXbt2zWtOfBA1bBl2DIv/C+JiMMvZ1uC+IghGKI1j5PPPP987h3BwPbfrKyAM1rdvVEagUwKLTaerG8Ik6rzpppuKK3lOYlvn4hOfMvcHwTIERnh56aWXUgShrl7GPaZBxRIjftE/8cn46tWriymdMX2q/NR8Iffbb799zlTRwf7tD4Lbtm1baBOduO+rr75K5QV0OtFgjZyYQByfyqU/BP72t7/tvabaGAbjYjAxTTOmpy80RbM0Wez3sGNYBLpzOeYPBsFyJHGxOtxfTwFhsJ79oioCBAhMTaAc3VwoBE5tpw3Y8OnTp1OM8H388cfFlM8YgYg3N3E7Hhv2/YxHjx5N3/ve94oLLgxOES2DYEwN7eqIYANeAkqssUB8iBVTsWOJf48xEtgfAmtc+tilxXl4MdsgRvjOZRl2DIuAGedkRuhc7lIGwVj/8ccfP6eQutx9WW+6Ai4gM11fWydAgECtBPrfUMVI4D333JOeeeaZYjSwVoVmLCYCYNjE1fjiogpxO74XMKaBRqgrl7jSXlzdL94UxRIjgTFV6tvf/naKYFgucT5OTLkVBEsRvwmMLlB+iBUjZHExlbhoSldGmMt29k+RjWNRXCk0jlHDluUcw+KYdfXVV887xsVxbqGw+NOf/rTY7bmOVg6r2ePVCRgZrM7anggQIJBdIC6wEOcEltNBsxdU0wJiOmhcUCGCXFzxM0bz4mp8MzMzxU+UPThtK95wxZu1+AS/f4poXODhggsuKC7LPnjRoJiWaqSwpi8CZdVGID7EuvTSS9MvfvGLzgTAfvw4tsSyY8eO4qslyseGTV0v14vfw45h5fTT/mNcXFCmnNIeYTHOmY6vrYjjVgTHOM968DzGweNifw3+rqeAMFjPflEVAQIEJi4QFwiIN1P9F0eZ+E4ausG4qufglT3LN0Flk5Yb2ganiC73eeV+/CZAYK5ATGG8++67597ZsVsRCMtQuFDTB49Xg7fjOcOORfEh2GLnRS/12EL1uK85AqaJNqevVEqAAIGxBOINlSA4FuGST45RxG9961vpz3/+85LreZAAgdEE4urGFgIEpiNgZHA6rrZKgAABAh0SiCmk69evL6ZPDY4wdohBUwkQIECgYQLCYMM6TLkECBAgUD+BYdOv6lexiggQIECAQEqmiXoVECBAgAABAgQIECBAoIMCwmAHO12TCRAgQIAAAQIECBAgIAx6DRAgQIAAAQIECBAgQKCDAsJgBztdkwkQIECAAAECBAgQICAMeg0QIECAAAECBAgQIECggwLCYAc7XZMJECBAgAABAgQIECAgDHoNECBAgAABAgQIECBAoIMCwmAHO12TCRAgQIAAAQIECBAgIAx6DRAgQIAAAQIECBAgQKCDAsJgBztdkwkQIECAAAECBAgQICAMeg0QIECAAAECBAgQIECggwLCYAc7XZMJECBAgAABAgQIECAgDHoNECBAgAABAgQIECBAoIMCwmAHO12TCRAgQIAAAQIEuiFw8803p3379qWdO3f2Gvzqq6+m+CmXJ554Is3OzqaNGzeWd/ndEYGVHWmnZhIgQIAAAQIECBDonMDhw4fT1q1b57R727Ztc24/++yzKX4s3RMwMti9PtdiAgQIECBAgAABAgQIJGHQi4AAAQIECBAgQIAAAQIdFBAGO9jpmkyAAAECBAgQIECAAAFh0GuAAAECBAgQIECAAAECHRQQBjvY6ZpMgAABAgQIECBAgAABYdBrgAABAgQIECBAgAABAh0UEAY72OmaTIAAAQIECBAgQIAAAWHQa4AAAQIECBAgQIAAAQIdFBAGO9jpmkyAAAECBAgQIECAAAFh0GuAAAECBAgQIECAAAECHRQQBjvY6ZpMgAABAgQIECBAgAABYdBrgAABAgQIECBAgAABAh0UWNnBNmsyAQIECCxTYNOmTctc02oECBCoh8CKFSuSY1c9+kIV9RcQBuvfRyokQIBAFoGzZ8+mhx56KMu+7bS9Al9//XV7G6dl2QXOnDnjuJW9F9pXwOnTp9vXqP+2SBhsbddqGAECBM5d4I033kjxYyFAgECTBO6+++4mlatWAtkFnDOYvQsUQIAAAQIECBAgQIAAgeoFhMHqze2RAAECBAgQIECAAAEC2QWEwexdoAACBAgQIECAAAECBAhULyAMVm9ujwQIECBAgAABAgQIEMguIAxm7wIFECBAgAABAgQIECBAoHoBYbB6c3skQIAAAQIECBAgQIBAdgFhMHsXKIAAAQIECBAgQIAAAQLVCwiD1ZvbIwECBAgQIECAAAECBLILCIPZu0ABBAgQIECAAAECBAgQqF5AGKze3B4JECBAgAABAgQIECCQXUAYzN4FCiBAgAABAgQIECBAgED1AsJg9eb2SIAAAQIECBAgQIAAgewCwmD2LlAAAQIECBAgQIAAAQIEqhcQBqs3t0cCBAgQIECAAAECBAhkFxAGs3eBAggQIECAAAECBAgQIFC9gDBYvbk9EiBAgAABAgQIECBAILuAMJi9CxRAgAABAgQIECBAgACB6gWEwerN7ZEAAQIECBAgQIAAAQLZBYTB7F2gAAIECBAgQIAAAQIECFQvIAxWb26PBAgQIECAAAECBAgQyC4gDGbvAgUQIECAAAECBAgQIECgegFhsHpzeyRAgAABAgQIECBAgEB2AWEwexcogAABAgQIECBAgAABAtULCIPVm9sjAQIECBAgQIAAAQIEsgsIg9m7QAEECBAgQIAAAQIECBCoXkAYrN7cHgkQIECAAAECBAgQIJBdQBjM3gUKIECAAAECBAgQIECAQPUCwmD15vZIgAABAgQIECBAgACB7ALCYPYuUAABAgQIECBAgAABAgSqFxAGqze3RwIECBAgQIAAAQIECGQXEAazd4ECCBAgQIAAAQIECBAgUL2AMFi9uT0SIECAAAECBAgQIEAgu4AwmL0LFECAAAECBAgQIECAAIHqBYTB6s3tkQABAgQIECBAgAABAtkFhMHsXaAAAgQIECBAgAABAgQIVC8gDFZvbo8ECBAgQIAAAQIECBDILiAMZu8CBRAgQIAAAQIECBAgQKB6AWGwenN7JECAAAECBAgQIECAQHYBYTB7FyiAAAECBAgQIECAAAEC1QsIg9Wb2yMBAgQIECBAgAABAgSyCwiD2btAAQQIECBAgAABAgQIEKheQBis3tweCRAgQIAAAQIECBAgkF1AGMzeBQogQIAAAQIECBAgQIBA9QLCYPXm9kiAAAECBAgQIECAAIHsAsJg9i5QAAECBAgQIECAAAECBKoXEAarN7dHAgQIECBAgAABAgQIZBcQBrN3gQIIECBAgAABAgQIECBQvYAwWL25PRIgQIAAAQIECBAgQCC7gDCYvQsUQIAAAQIECBAgQIAAgeoFhMHqze2RAAECBAgQIECAAAEC2QWEwexdoAACBAgQIECAAAECBAhULyAMVm9ujwQIECBAgAABAgQIEMguIAxm7wIFECBAgAABAgQIECBAoHoBYbB6c3skQIAAAQIECBAgQIBAdgFhMHsXKIAAAQIECBAgQIAAAQLVCwiD1ZvbIwECBAgQIECAAAECBLILCIPZu0ABBAgQIECAAAECBAgQqF5AGKze3B4JECBAgAABAgQIECCQXUAYzN4FCiBAgAABAgQIECBAgED1AsJg9eb2SIAAAQIECBAgQIAAgewCwmD2LlAAAQIECBAgQIAAAQIEqhcQBqs3t0cCBAgQIECAAAECBAhkFxAGs3eBAggQIECAAAECBAgQIFC9gDBYvbk9EiBAgAABAgQIECBAILuAMJi9CxRAgAABAgQIECBAgACB6gWEwerN7ZEAAQIECBAgQIAAAQLZBYTB7F2gAAIECBAgQIAAAQIECFQvIAxWb26PBAgQIECAAAECBAgQyC4gDGbvAgUQIECAAAECBAgQIECgegFhsHpzeyRAgAABAgQIECBAgEB2AWEwexcogAABAgQIECBAgAABAtULCIPVm9sjAQIECBAgQIAAAQIEsgsIg9m7QAEECBAgQIAAAQIECBCoXkAYrN7cHgkQIECAAAECBAgQIJBdQBjM3gUKIECAAAECBAgQIECAQPUCK6vfpT0SIECAQAj86le/AkGAAAECBAgQyCawrDB40003pfixECBAgMBkBN5///3JbMhWCBAgQIAAgVYKVPFeYWgYPHLkiCDYypeXRhEgMKpAHA8nsbz88suT2IxtECBAgAABAgTGEvi/tWvXnh1rC55MgAABAgQIECBAgAABAo0TcAGZxnWZggkQIECAAAECBAgQIDC+gInyINEAAAGKSURBVDA4vqEtECBAgAABAgQIECBAoHECwmDjukzBBAgQIECAAAECBAgQGF9AGBzf0BYIECBAgAABAgQIECDQOAFhsHFdpmACBAgQIECAAAECBAiMLyAMjm9oCwQIECBAgAABAgQIEGicgDDYuC5TMAECBAgQIECAAAECBMYXEAbHN7QFAgQIECBAgAABAgQINE5AGGxclymYAAECBAgQIECAAAEC4wsIg+Mb2gIBAgQIECBAgAABAgQaJyAMNq7LFEyAAAECBAgQIECAAIHxBYTB8Q1tgQABAgQIECBAgAABAo0TEAYb12UKJkCAAAECBAgQIECAwPgCwuD4hrZAgAABAgQIECBAgACBxgkIg43rMgUTIECAAAECBAgQIEBgfAFhcHxDWyBAgAABAgQIECBAgEDjBITBxnWZggkQIECAAAECBAgQIDC+gDA4vqEtECBAgAABAgQIECBAoHECwmDjukzBBAgQIECAAAECBAgQGF9AGBzf0BYIECBAgAABAgQIECDQOIH/B4q4sRA/3ARhAAAAAElFTkSuQmCC;" vertex="1" parent="1">
                    <mxGeometry x="670" y="-10" width="465.29" height="442" as="geometry"/>
                </mxCell>
                <mxCell id="23" style="edgeStyle=orthogonalEdgeStyle;rounded=0;orthogonalLoop=1;jettySize=auto;html=1;entryX=0;entryY=0.5;entryDx=0;entryDy=0;entryPerimeter=0;" edge="1" parent="1" source="6" target="26">
                    <mxGeometry relative="1" as="geometry">
                        <Array as="points">
                            <mxPoint x="520" y="340"/>
                            <mxPoint x="520" y="200"/>
                        </Array>
                    </mxGeometry>
                </mxCell>
                <mxCell id="25" value="查找副作用" style="edgeLabel;html=1;align=center;verticalAlign=middle;resizable=0;points=[];" vertex="1" connectable="0" parent="23">
                    <mxGeometry x="0.105" y="-2" relative="1" as="geometry">
                        <mxPoint as="offset"/>
                    </mxGeometry>
                </mxCell>
                <mxCell id="27" style="edgeStyle=orthogonalEdgeStyle;rounded=0;orthogonalLoop=1;jettySize=auto;html=1;exitX=1;exitY=0.5;exitDx=0;exitDy=0;exitPerimeter=0;entryX=1;entryY=0.5;entryDx=0;entryDy=0;entryPerimeter=0;" edge="1" parent="1" source="26" target="9">
                    <mxGeometry relative="1" as="geometry"/>
                </mxCell>
                <mxCell id="28" value="触发依赖" style="edgeLabel;html=1;align=center;verticalAlign=middle;resizable=0;points=[];" vertex="1" connectable="0" parent="27">
                    <mxGeometry x="0.4118" y="-1" relative="1" as="geometry">
                        <mxPoint as="offset"/>
                    </mxGeometry>
                </mxCell>
                <mxCell id="26" value="" style="html=1;shadow=0;dashed=0;align=center;verticalAlign=middle;shape=mxgraph.arrows2.arrow;dy=0.67;dx=20;notch=0;" vertex="1" parent="1">
                    <mxGeometry x="550" y="180" width="90" height="40" as="geometry"/>
                </mxCell>
            </root>
        </mxGraphModel>
    </diagram>
</mxfile>